<svg width="361" height="208" viewBox="0 0 361 208" fill="none" xmlns="http://www.w3.org/2000/svg">
<rect width="360" height="208" fill="#FFFEEC"/>
<path d="M178.297 61.1334L196.754 88.2819H196.852V66.1139C196.852 65.0071 196.591 64.2747 196.07 63.9166C195.582 63.526 195.045 63.3307 194.459 63.3307H192.701V61.1334H203.883V63.3307H201.93C201.311 63.3307 200.758 63.526 200.27 63.9166C199.781 64.2747 199.537 65.0071 199.537 66.1139V97.8522H197.389L176.197 67.1881L176.051 67.3346V92.5299C176.051 93.6041 176.295 94.3365 176.783 94.7272C177.271 95.1178 177.809 95.3131 178.395 95.3131H180.201V97.4615H169.312V95.3131H170.924C171.51 95.3131 172.047 95.1178 172.535 94.7272C173.023 94.3365 173.268 93.6041 173.268 92.5299V64.8932L172.145 63.3307H169.703V61.1334H178.297Z" fill="#535050"/>
<circle cx="188.25" cy="37" r="15" fill="#5782BB"/>
<path d="M192.75 29.6486H183.886C183.064 29.6486 181.841 30.2139 181.841 31.7712V41.6769C181.841 43.2342 183.064 43.7995 183.886 43.7995H194.114V42.3844H183.894C183.579 42.3759 183.204 42.2464 183.204 41.6769C183.204 41.6054 183.211 41.5417 183.221 41.4837C183.297 41.0769 183.618 40.9764 183.894 40.9693H193.432C193.444 40.9693 193.453 40.9629 193.465 40.9622H194.114V31.0637C194.114 30.2832 193.502 29.6486 192.75 29.6486ZM192.75 39.5542H183.204V31.7712C183.204 31.2009 183.579 31.0721 183.886 31.0637H188.659V36.0165L190.023 35.3089L191.386 36.0165V31.0637H192.75V39.5542Z" fill="white"/>
<path d="M7.62939e-06 208V144C27.237 145.956 88.1688 161.493 114 208H7.62939e-06Z" fill="#535050"/>
<g clip-path="url(#clip0_89_15)">
<path d="M19.2004 133.828C18.9393 133.781 18.6704 133.84 18.4528 133.992C18.2351 134.143 18.0866 134.375 18.0398 134.636C17.9931 134.897 18.052 135.166 18.2035 135.384C18.355 135.602 18.5869 135.75 18.8479 135.797C19.109 135.844 19.3779 135.785 19.5956 135.633C19.8132 135.482 19.9618 135.25 20.0085 134.989C20.0553 134.728 19.9964 134.459 19.8448 134.241C19.6933 134.024 19.4615 133.875 19.2004 133.828Z" fill="#535050"/>
<path fill-rule="evenodd" clip-rule="evenodd" d="M28.6971 131.853L21.5274 126.506L21.9472 124.161L27.8533 125.218L28.9107 119.312L21.036 117.902L19.5587 126.153L10.9789 128.681L10.3412 132.242L6.40386 131.537L4.2889 143.349L2.32021 142.997L1.96771 144.965L13.7799 147.08L15.1898 139.206L21.0959 140.263L19.6859 148.138L31.4981 150.253L31.8506 148.284L29.8819 147.932L31.9969 136.119L28.0595 135.414L28.6971 131.853ZM27.9132 147.579L29.6757 137.736L27.707 137.383L25.9445 147.227L27.9132 147.579ZM8.22628 144.054L6.25759 143.702L8.02006 133.858L9.98875 134.211L8.22628 144.054ZM16.0711 134.284C16.2113 133.501 16.6569 132.805 17.3099 132.351C17.9628 131.896 18.7697 131.719 19.5529 131.859C20.336 132 21.0315 132.445 21.4861 133.098C21.9407 133.751 22.1174 134.558 21.9772 135.341C21.8369 136.124 21.3913 136.82 20.7384 137.275C20.0854 137.729 19.2786 137.906 18.4954 137.766C17.7122 137.625 17.0168 137.18 16.5621 136.527C16.1075 135.874 15.9308 135.067 16.0711 134.284Z" fill="#535050"/>
<path d="M17.7174 147.785L18.7748 141.879L16.8062 141.527L15.7487 147.433L17.7174 147.785Z" fill="#535050"/>
</g>
<path d="M33.683 40.1675C32.6607 37.1475 30.0558 35 27.0045 35C23.9531 35 21.3482 37.145 20.3259 40.165C18.4129 40.7275 17 42.6775 17 45C17 47.7625 18.9978 50 21.4621 50H32.5379C35.0022 50 37 47.7625 37 45C37 42.6825 35.5915 40.7325 33.683 40.1675Z" fill="white"/>
<path d="M92.3891 41.2772C91.6393 38.7632 89.2397 36.7685 86.2069 36.4322C83.1742 36.0958 80.396 37.5142 79.1136 39.8028C77.1627 40.0392 75.5864 41.4339 75.3816 43.2806C75.138 45.4771 76.9262 47.4764 79.3755 47.7481L90.3839 48.969C92.8332 49.2406 95.0161 47.6818 95.2597 45.4852C95.4641 43.6425 94.2361 41.9368 92.3891 41.2772Z" fill="white"/>
<path d="M305.264 86.6793C304.296 84.241 301.731 82.4651 298.68 82.3967C295.629 82.3284 292.987 83.9856 291.91 86.3781C289.988 86.7851 288.54 88.3131 288.499 90.1706C288.449 92.38 290.406 94.2143 292.87 94.2695L303.943 94.5176C306.407 94.5728 308.444 92.828 308.494 90.6186C308.535 88.7651 307.162 87.1739 305.264 86.6793Z" fill="white"/>
<g clip-path="url(#clip1_89_15)">
<path d="M27.8607 102.244C24.2934 101.606 20.883 103.981 20.2444 107.548C19.6058 111.115 21.9804 114.525 25.5477 115.164C29.115 115.803 32.5253 113.428 33.164 109.861C33.8026 106.293 31.428 102.883 27.8607 102.244ZM26.4651 111.894L26.3861 112.351C26.3747 112.415 26.3133 112.459 26.2498 112.447L25.8403 112.374C25.7769 112.363 25.7343 112.302 25.7456 112.238L25.8267 111.785C24.5633 111.461 24.0912 110.623 24.1683 109.819C24.1747 109.75 24.2383 109.702 24.3061 109.714L24.9723 109.833C25.0285 109.843 25.0703 109.892 25.0691 109.949C25.0609 110.419 25.3558 110.825 25.9794 111.024L26.3477 108.966L26.0078 108.812C25.286 108.497 24.6521 107.898 24.8266 106.923C25.0148 105.872 25.9148 105.45 26.9535 105.533L27.0387 105.057C27.05 104.994 27.1112 104.951 27.1747 104.963L27.5798 105.035C27.6433 105.046 27.6859 105.108 27.6745 105.171L27.5901 105.643C28.56 105.919 29.1979 106.628 29.1236 107.542C29.1187 107.611 29.0548 107.661 28.9855 107.648L28.3381 107.532C28.2804 107.522 28.2392 107.47 28.242 107.413C28.2597 106.981 27.9838 106.578 27.4478 106.404L27.1011 108.341L27.4521 108.491C28.3452 108.889 28.9011 109.45 28.7219 110.451C28.5275 111.537 27.6116 111.998 26.4651 111.894ZM25.7353 107.017C25.6698 107.384 25.8453 107.708 26.3012 107.971C26.364 108.011 26.4279 108.045 26.5045 108.082L26.8246 106.294C26.2804 106.267 25.829 106.494 25.7353 107.017ZM27.0662 109.268C27.0273 109.252 26.9888 109.234 26.9449 109.213L26.5998 111.141C27.2239 111.196 27.7082 110.935 27.8094 110.369C27.8886 109.927 27.711 109.597 27.0662 109.268Z" fill="#535050"/>
</g>
<rect x="89" y="179" width="272" height="29" fill="#535050"/>
<path d="M342.636 169C343.393 169 344 169.742 344 170.667V176.5H342.636C342.636 177.163 342.421 177.799 342.037 178.268C341.654 178.737 341.133 179 340.591 179C340.048 179 339.528 178.737 339.145 178.268C338.761 177.799 338.545 177.163 338.545 176.5H334.455C334.455 177.163 334.239 177.799 333.855 178.268C333.472 178.737 332.952 179 332.409 179C331.867 179 331.346 178.737 330.963 178.268C330.579 177.799 330.364 177.163 330.364 176.5H329V174C329 173.075 329.607 172.333 330.364 172.333H331.727V170.667C331.727 169.742 332.334 169 333.091 169H342.636ZM335.477 170.25H332.75V172.333H335.477V170.25ZM342.977 170.25H340.25V172.333H342.977V170.25ZM339.227 170.25H336.5V172.333H339.227V170.25ZM340.591 175.25C340.32 175.25 340.06 175.382 339.868 175.616C339.676 175.851 339.568 176.168 339.568 176.5C339.568 176.832 339.676 177.149 339.868 177.384C340.06 177.618 340.32 177.75 340.591 177.75C340.862 177.75 341.122 177.618 341.314 177.384C341.506 177.149 341.614 176.832 341.614 176.5C341.614 176.168 341.506 175.851 341.314 175.616C341.122 175.382 340.862 175.25 340.591 175.25V175.25ZM332.409 175.25C332.138 175.25 331.878 175.382 331.686 175.616C331.494 175.851 331.386 176.168 331.386 176.5C331.386 176.832 331.494 177.149 331.686 177.384C331.878 177.618 332.138 177.75 332.409 177.75C332.68 177.75 332.94 177.618 333.132 177.384C333.324 177.149 333.432 176.832 333.432 176.5C333.432 176.168 333.324 175.851 333.132 175.616C332.94 175.382 332.68 175.25 332.409 175.25Z" fill="#535050"/>
<path d="M114.078 115.602V122H112.975L110.105 117.417V122H109.002V115.602H110.105L112.983 120.194V115.602H114.078ZM115.084 119.675V119.574C115.084 119.231 115.134 118.914 115.233 118.621C115.333 118.325 115.477 118.068 115.664 117.852C115.854 117.632 116.086 117.462 116.358 117.342C116.634 117.219 116.944 117.157 117.29 117.157C117.639 117.157 117.949 117.219 118.222 117.342C118.497 117.462 118.73 117.632 118.92 117.852C119.111 118.068 119.256 118.325 119.355 118.621C119.455 118.914 119.505 119.231 119.505 119.574V119.675C119.505 120.018 119.455 120.336 119.355 120.629C119.256 120.922 119.111 121.178 118.92 121.398C118.73 121.615 118.499 121.785 118.226 121.908C117.954 122.028 117.645 122.088 117.299 122.088C116.95 122.088 116.638 122.028 116.363 121.908C116.09 121.785 115.859 121.615 115.668 121.398C115.478 121.178 115.333 120.922 115.233 120.629C115.134 120.336 115.084 120.018 115.084 119.675ZM116.143 119.574V119.675C116.143 119.889 116.165 120.091 116.209 120.282C116.253 120.472 116.322 120.639 116.416 120.783C116.509 120.926 116.629 121.039 116.776 121.121C116.922 121.203 117.097 121.244 117.299 121.244C117.495 121.244 117.665 121.203 117.809 121.121C117.955 121.039 118.075 120.926 118.169 120.783C118.263 120.639 118.332 120.472 118.375 120.282C118.422 120.091 118.446 119.889 118.446 119.675V119.574C118.446 119.363 118.422 119.164 118.375 118.977C118.332 118.786 118.261 118.618 118.165 118.471C118.071 118.325 117.951 118.21 117.804 118.128C117.661 118.043 117.489 118.001 117.29 118.001C117.091 118.001 116.918 118.043 116.771 118.128C116.628 118.21 116.509 118.325 116.416 118.471C116.322 118.618 116.253 118.786 116.209 118.977C116.165 119.164 116.143 119.363 116.143 119.574ZM122.572 117.245V118.019H119.892V117.245H122.572ZM120.665 116.081H121.724V120.686C121.724 120.833 121.745 120.945 121.786 121.024C121.83 121.101 121.89 121.152 121.966 121.178C122.042 121.205 122.131 121.218 122.234 121.218C122.307 121.218 122.377 121.213 122.445 121.205C122.512 121.196 122.566 121.187 122.607 121.178L122.612 121.987C122.524 122.013 122.421 122.037 122.304 122.057C122.19 122.078 122.058 122.088 121.909 122.088C121.666 122.088 121.45 122.045 121.263 121.96C121.075 121.873 120.929 121.73 120.823 121.534C120.718 121.338 120.665 121.077 120.665 120.752V116.081ZM126.07 121.046V118.779C126.07 118.609 126.04 118.462 125.978 118.339C125.917 118.216 125.823 118.121 125.697 118.054C125.574 117.986 125.418 117.953 125.231 117.953C125.058 117.953 124.909 117.982 124.783 118.041C124.657 118.099 124.559 118.178 124.488 118.278C124.418 118.377 124.383 118.49 124.383 118.616H123.328C123.328 118.429 123.374 118.247 123.464 118.071C123.555 117.896 123.687 117.739 123.86 117.601C124.033 117.463 124.239 117.355 124.479 117.276C124.72 117.197 124.989 117.157 125.288 117.157C125.646 117.157 125.962 117.217 126.237 117.337C126.516 117.458 126.734 117.639 126.892 117.882C127.053 118.123 127.134 118.424 127.134 118.788V120.901C127.134 121.118 127.148 121.313 127.178 121.486C127.21 121.656 127.255 121.804 127.314 121.93V122H126.229C126.179 121.886 126.139 121.741 126.11 121.565C126.083 121.386 126.07 121.213 126.07 121.046ZM126.224 119.108L126.233 119.763H125.473C125.276 119.763 125.104 119.782 124.954 119.82C124.805 119.855 124.68 119.908 124.581 119.979C124.481 120.049 124.406 120.134 124.356 120.233C124.307 120.333 124.282 120.446 124.282 120.572C124.282 120.698 124.311 120.813 124.37 120.919C124.428 121.021 124.513 121.102 124.625 121.161C124.739 121.219 124.876 121.249 125.038 121.249C125.254 121.249 125.443 121.205 125.604 121.117C125.769 121.026 125.897 120.916 125.991 120.787C126.085 120.655 126.135 120.531 126.141 120.414L126.483 120.884C126.448 121.004 126.388 121.133 126.303 121.271C126.218 121.408 126.107 121.54 125.969 121.666C125.834 121.789 125.672 121.89 125.481 121.969C125.294 122.048 125.077 122.088 124.831 122.088C124.521 122.088 124.244 122.026 124 121.903C123.757 121.777 123.567 121.609 123.429 121.398C123.292 121.184 123.223 120.942 123.223 120.673C123.223 120.421 123.27 120.198 123.363 120.005C123.46 119.809 123.601 119.645 123.785 119.513C123.973 119.381 124.201 119.281 124.471 119.214C124.74 119.144 125.048 119.108 125.394 119.108H126.224ZM130.922 121.046V118.779C130.922 118.609 130.891 118.462 130.83 118.339C130.768 118.216 130.674 118.121 130.548 118.054C130.425 117.986 130.27 117.953 130.083 117.953C129.91 117.953 129.76 117.982 129.634 118.041C129.508 118.099 129.41 118.178 129.34 118.278C129.27 118.377 129.234 118.49 129.234 118.616H128.18C128.18 118.429 128.225 118.247 128.316 118.071C128.407 117.896 128.539 117.739 128.711 117.601C128.884 117.463 129.091 117.355 129.331 117.276C129.571 117.197 129.841 117.157 130.14 117.157C130.497 117.157 130.813 117.217 131.089 117.337C131.367 117.458 131.585 117.639 131.744 117.882C131.905 118.123 131.985 118.424 131.985 118.788V120.901C131.985 121.118 132 121.313 132.029 121.486C132.062 121.656 132.107 121.804 132.166 121.93V122H131.08C131.03 121.886 130.991 121.741 130.961 121.565C130.935 121.386 130.922 121.213 130.922 121.046ZM131.076 119.108L131.084 119.763H130.324C130.128 119.763 129.955 119.782 129.806 119.82C129.656 119.855 129.532 119.908 129.432 119.979C129.333 120.049 129.258 120.134 129.208 120.233C129.158 120.333 129.133 120.446 129.133 120.572C129.133 120.698 129.163 120.813 129.221 120.919C129.28 121.021 129.365 121.102 129.476 121.161C129.59 121.219 129.728 121.249 129.889 121.249C130.106 121.249 130.295 121.205 130.456 121.117C130.62 121.026 130.749 120.916 130.843 120.787C130.937 120.655 130.986 120.531 130.992 120.414L131.335 120.884C131.3 121.004 131.24 121.133 131.155 121.271C131.07 121.408 130.958 121.54 130.821 121.666C130.686 121.789 130.523 121.89 130.333 121.969C130.146 122.048 129.929 122.088 129.683 122.088C129.372 122.088 129.095 122.026 128.852 121.903C128.609 121.777 128.418 121.609 128.281 121.398C128.143 121.184 128.074 120.942 128.074 120.673C128.074 120.421 128.121 120.198 128.215 120.005C128.312 119.809 128.452 119.645 128.637 119.513C128.824 119.381 129.053 119.281 129.322 119.214C129.592 119.144 129.899 119.108 130.245 119.108H131.076ZM135.272 117.245V118.019H132.592V117.245H135.272ZM133.365 116.081H134.424V120.686C134.424 120.833 134.445 120.945 134.486 121.024C134.53 121.101 134.59 121.152 134.666 121.178C134.742 121.205 134.832 121.218 134.934 121.218C135.007 121.218 135.078 121.213 135.145 121.205C135.212 121.196 135.267 121.187 135.308 121.178L135.312 121.987C135.224 122.013 135.122 122.037 135.004 122.057C134.89 122.078 134.758 122.088 134.609 122.088C134.366 122.088 134.15 122.045 133.963 121.96C133.775 121.873 133.629 121.73 133.523 121.534C133.418 121.338 133.365 121.077 133.365 120.752V116.081Z" fill="#7B9CDA"/>
<path d="M137.083 120.98L137.079 121.736C137.079 122.035 137.004 122.343 136.854 122.659C136.705 122.976 136.507 123.236 136.261 123.441L135.694 123.112C135.776 122.98 135.851 122.847 135.918 122.712C135.986 122.577 136.04 122.434 136.081 122.281C136.122 122.129 136.143 121.96 136.143 121.776V120.98H137.083ZM143.024 121.046V118.779C143.024 118.609 142.994 118.462 142.932 118.339C142.871 118.216 142.777 118.121 142.651 118.054C142.528 117.986 142.373 117.953 142.185 117.953C142.012 117.953 141.863 117.982 141.737 118.041C141.611 118.099 141.513 118.178 141.442 118.278C141.372 118.377 141.337 118.49 141.337 118.616H140.282C140.282 118.429 140.328 118.247 140.418 118.071C140.509 117.896 140.641 117.739 140.814 117.601C140.987 117.463 141.193 117.355 141.434 117.276C141.674 117.197 141.943 117.157 142.242 117.157C142.6 117.157 142.916 117.217 143.191 117.337C143.47 117.458 143.688 117.639 143.846 117.882C144.007 118.123 144.088 118.424 144.088 118.788V120.901C144.088 121.118 144.103 121.313 144.132 121.486C144.164 121.656 144.209 121.804 144.268 121.93V122H143.183C143.133 121.886 143.093 121.741 143.064 121.565C143.038 121.386 143.024 121.213 143.024 121.046ZM143.178 119.108L143.187 119.763H142.427C142.23 119.763 142.058 119.782 141.908 119.82C141.759 119.855 141.634 119.908 141.535 119.979C141.435 120.049 141.36 120.134 141.311 120.233C141.261 120.333 141.236 120.446 141.236 120.572C141.236 120.698 141.265 120.813 141.324 120.919C141.382 121.021 141.467 121.102 141.579 121.161C141.693 121.219 141.831 121.249 141.992 121.249C142.208 121.249 142.397 121.205 142.559 121.117C142.723 121.026 142.852 120.916 142.945 120.787C143.039 120.655 143.089 120.531 143.095 120.414L143.438 120.884C143.402 121.004 143.342 121.133 143.257 121.271C143.172 121.408 143.061 121.54 142.923 121.666C142.789 121.789 142.626 121.89 142.436 121.969C142.248 122.048 142.031 122.088 141.785 122.088C141.475 122.088 141.198 122.026 140.955 121.903C140.711 121.777 140.521 121.609 140.383 121.398C140.246 121.184 140.177 120.942 140.177 120.673C140.177 120.421 140.224 120.198 140.317 120.005C140.414 119.809 140.555 119.645 140.739 119.513C140.927 119.381 141.155 119.281 141.425 119.214C141.694 119.144 142.002 119.108 142.348 119.108H143.178ZM146.246 118.26V122H145.187V117.245H146.184L146.246 118.26ZM146.057 119.447L145.714 119.442C145.717 119.105 145.764 118.796 145.854 118.515C145.948 118.234 146.077 117.992 146.241 117.79C146.408 117.588 146.607 117.433 146.839 117.324C147.07 117.213 147.328 117.157 147.612 117.157C147.841 117.157 148.047 117.189 148.232 117.254C148.419 117.315 148.579 117.417 148.711 117.557C148.846 117.698 148.948 117.881 149.019 118.106C149.089 118.329 149.124 118.603 149.124 118.928V122H148.061V118.924C148.061 118.695 148.027 118.515 147.959 118.383C147.895 118.249 147.8 118.153 147.674 118.098C147.551 118.039 147.397 118.01 147.212 118.01C147.031 118.01 146.868 118.048 146.725 118.124C146.581 118.2 146.459 118.304 146.36 118.436C146.263 118.568 146.188 118.72 146.136 118.893C146.083 119.066 146.057 119.25 146.057 119.447ZM155.127 121.046V118.779C155.127 118.609 155.096 118.462 155.035 118.339C154.973 118.216 154.879 118.121 154.753 118.054C154.63 117.986 154.475 117.953 154.288 117.953C154.115 117.953 153.965 117.982 153.839 118.041C153.713 118.099 153.615 118.178 153.545 118.278C153.475 118.377 153.439 118.49 153.439 118.616H152.385C152.385 118.429 152.43 118.247 152.521 118.071C152.612 117.896 152.744 117.739 152.917 117.601C153.089 117.463 153.296 117.355 153.536 117.276C153.776 117.197 154.046 117.157 154.345 117.157C154.702 117.157 155.019 117.217 155.294 117.337C155.572 117.458 155.791 117.639 155.949 117.882C156.11 118.123 156.19 118.424 156.19 118.788V120.901C156.19 121.118 156.205 121.313 156.234 121.486C156.267 121.656 156.312 121.804 156.371 121.93V122H155.285C155.235 121.886 155.196 121.741 155.167 121.565C155.14 121.386 155.127 121.213 155.127 121.046ZM155.281 119.108L155.29 119.763H154.529C154.333 119.763 154.16 119.782 154.011 119.82C153.861 119.855 153.737 119.908 153.637 119.979C153.538 120.049 153.463 120.134 153.413 120.233C153.363 120.333 153.338 120.446 153.338 120.572C153.338 120.698 153.368 120.813 153.426 120.919C153.485 121.021 153.57 121.102 153.681 121.161C153.795 121.219 153.933 121.249 154.094 121.249C154.311 121.249 154.5 121.205 154.661 121.117C154.825 121.026 154.954 120.916 155.048 120.787C155.142 120.655 155.191 120.531 155.197 120.414L155.54 120.884C155.505 121.004 155.445 121.133 155.36 121.271C155.275 121.408 155.164 121.54 155.026 121.666C154.891 121.789 154.729 121.89 154.538 121.969C154.351 122.048 154.134 122.088 153.888 122.088C153.577 122.088 153.3 122.026 153.057 121.903C152.814 121.777 152.624 121.609 152.486 121.398C152.348 121.184 152.279 120.942 152.279 120.673C152.279 120.421 152.326 120.198 152.42 120.005C152.517 119.809 152.657 119.645 152.842 119.513C153.029 119.381 153.258 119.281 153.527 119.214C153.797 119.144 154.104 119.108 154.45 119.108H155.281ZM158.361 118.159V123.828H157.302V117.245H158.278L158.361 118.159ZM161.459 119.579V119.671C161.459 120.017 161.418 120.337 161.336 120.633C161.257 120.926 161.139 121.183 160.98 121.402C160.825 121.619 160.633 121.788 160.405 121.908C160.176 122.028 159.913 122.088 159.614 122.088C159.318 122.088 159.059 122.034 158.836 121.925C158.616 121.814 158.43 121.657 158.278 121.455C158.125 121.253 158.002 121.016 157.909 120.743C157.818 120.468 157.753 120.166 157.715 119.838V119.482C157.753 119.133 157.818 118.817 157.909 118.533C158.002 118.249 158.125 118.004 158.278 117.799C158.43 117.594 158.616 117.436 158.836 117.324C159.056 117.213 159.312 117.157 159.605 117.157C159.904 117.157 160.169 117.216 160.4 117.333C160.632 117.447 160.827 117.611 160.985 117.825C161.143 118.036 161.262 118.291 161.341 118.59C161.42 118.886 161.459 119.215 161.459 119.579ZM160.4 119.671V119.579C160.4 119.359 160.38 119.155 160.339 118.968C160.298 118.777 160.233 118.61 160.146 118.467C160.058 118.323 159.945 118.212 159.807 118.133C159.672 118.051 159.51 118.01 159.319 118.01C159.132 118.01 158.971 118.042 158.836 118.106C158.701 118.168 158.588 118.254 158.498 118.366C158.407 118.477 158.336 118.607 158.287 118.757C158.237 118.903 158.202 119.063 158.181 119.236V120.088C158.216 120.299 158.276 120.493 158.361 120.668C158.446 120.844 158.566 120.985 158.722 121.09C158.88 121.193 159.082 121.244 159.328 121.244C159.519 121.244 159.681 121.203 159.816 121.121C159.951 121.039 160.061 120.926 160.146 120.783C160.233 120.636 160.298 120.468 160.339 120.277C160.38 120.087 160.4 119.885 160.4 119.671ZM163.424 118.159V123.828H162.365V117.245H163.34L163.424 118.159ZM166.522 119.579V119.671C166.522 120.017 166.481 120.337 166.399 120.633C166.32 120.926 166.201 121.183 166.043 121.402C165.888 121.619 165.696 121.788 165.467 121.908C165.239 122.028 164.975 122.088 164.676 122.088C164.38 122.088 164.121 122.034 163.898 121.925C163.679 121.814 163.493 121.657 163.34 121.455C163.188 121.253 163.065 121.016 162.971 120.743C162.88 120.468 162.816 120.166 162.778 119.838V119.482C162.816 119.133 162.88 118.817 162.971 118.533C163.065 118.249 163.188 118.004 163.34 117.799C163.493 117.594 163.679 117.436 163.898 117.324C164.118 117.213 164.375 117.157 164.667 117.157C164.966 117.157 165.231 117.216 165.463 117.333C165.694 117.447 165.889 117.611 166.047 117.825C166.206 118.036 166.324 118.291 166.403 118.59C166.482 118.886 166.522 119.215 166.522 119.579ZM165.463 119.671V119.579C165.463 119.359 165.442 119.155 165.401 118.968C165.36 118.777 165.296 118.61 165.208 118.467C165.12 118.323 165.007 118.212 164.87 118.133C164.735 118.051 164.572 118.01 164.382 118.01C164.194 118.01 164.033 118.042 163.898 118.106C163.764 118.168 163.651 118.254 163.56 118.366C163.469 118.477 163.399 118.607 163.349 118.757C163.299 118.903 163.264 119.063 163.244 119.236V120.088C163.279 120.299 163.339 120.493 163.424 120.668C163.509 120.844 163.629 120.985 163.784 121.09C163.942 121.193 164.145 121.244 164.391 121.244C164.581 121.244 164.744 121.203 164.878 121.121C165.013 121.039 165.123 120.926 165.208 120.783C165.296 120.636 165.36 120.468 165.401 120.277C165.442 120.087 165.463 119.885 165.463 119.671ZM171.844 117.245V118.019H169.163V117.245H171.844ZM169.937 116.081H170.996V120.686C170.996 120.833 171.016 120.945 171.057 121.024C171.101 121.101 171.161 121.152 171.237 121.178C171.313 121.205 171.403 121.218 171.505 121.218C171.579 121.218 171.649 121.213 171.716 121.205C171.784 121.196 171.838 121.187 171.879 121.178L171.883 121.987C171.795 122.013 171.693 122.037 171.576 122.057C171.461 122.078 171.33 122.088 171.18 122.088C170.937 122.088 170.722 122.045 170.534 121.96C170.347 121.873 170.2 121.73 170.095 121.534C169.989 121.338 169.937 121.077 169.937 120.752V116.081ZM172.354 119.675V119.574C172.354 119.231 172.403 118.914 172.503 118.621C172.603 118.325 172.746 118.068 172.934 117.852C173.124 117.632 173.355 117.462 173.628 117.342C173.903 117.219 174.214 117.157 174.56 117.157C174.908 117.157 175.219 117.219 175.491 117.342C175.767 117.462 176 117.632 176.19 117.852C176.38 118.068 176.525 118.325 176.625 118.621C176.725 118.914 176.774 119.231 176.774 119.574V119.675C176.774 120.018 176.725 120.336 176.625 120.629C176.525 120.922 176.38 121.178 176.19 121.398C176 121.615 175.768 121.785 175.496 121.908C175.223 122.028 174.914 122.088 174.568 122.088C174.22 122.088 173.908 122.028 173.632 121.908C173.36 121.785 173.128 121.615 172.938 121.398C172.748 121.178 172.603 120.922 172.503 120.629C172.403 120.336 172.354 120.018 172.354 119.675ZM173.413 119.574V119.675C173.413 119.889 173.435 120.091 173.479 120.282C173.522 120.472 173.591 120.639 173.685 120.783C173.779 120.926 173.899 121.039 174.045 121.121C174.192 121.203 174.366 121.244 174.568 121.244C174.765 121.244 174.935 121.203 175.078 121.121C175.225 121.039 175.345 120.926 175.438 120.783C175.532 120.639 175.601 120.472 175.645 120.282C175.692 120.091 175.715 119.889 175.715 119.675V119.574C175.715 119.363 175.692 119.164 175.645 118.977C175.601 118.786 175.531 118.618 175.434 118.471C175.34 118.325 175.22 118.21 175.074 118.128C174.93 118.043 174.759 118.001 174.56 118.001C174.36 118.001 174.188 118.043 174.041 118.128C173.897 118.21 173.779 118.325 173.685 118.471C173.591 118.618 173.522 118.786 173.479 118.977C173.435 119.164 173.413 119.363 173.413 119.574ZM180.949 115.25V122H179.895V115.25H180.949ZM180.765 119.447L180.422 119.442C180.425 119.114 180.47 118.811 180.558 118.533C180.649 118.254 180.775 118.013 180.936 117.808C181.1 117.6 181.296 117.44 181.525 117.329C181.753 117.214 182.007 117.157 182.285 117.157C182.52 117.157 182.73 117.189 182.918 117.254C183.108 117.318 183.272 117.422 183.41 117.566C183.548 117.707 183.652 117.891 183.722 118.12C183.795 118.345 183.832 118.621 183.832 118.946V122H182.769V118.937C182.769 118.708 182.735 118.527 182.667 118.392C182.603 118.257 182.508 118.161 182.382 118.102C182.256 118.041 182.102 118.01 181.92 118.01C181.73 118.01 181.562 118.048 181.415 118.124C181.271 118.2 181.151 118.304 181.055 118.436C180.958 118.568 180.885 118.72 180.835 118.893C180.788 119.066 180.765 119.25 180.765 119.447ZM187 122.088C186.649 122.088 186.331 122.031 186.047 121.917C185.766 121.799 185.525 121.637 185.326 121.429C185.13 121.221 184.979 120.976 184.874 120.695C184.768 120.414 184.715 120.11 184.715 119.785V119.609C184.715 119.237 184.77 118.9 184.878 118.599C184.986 118.297 185.137 118.039 185.331 117.825C185.524 117.608 185.752 117.443 186.016 117.329C186.28 117.214 186.565 117.157 186.873 117.157C187.213 117.157 187.51 117.214 187.765 117.329C188.02 117.443 188.231 117.604 188.398 117.812C188.568 118.017 188.694 118.262 188.776 118.546C188.861 118.83 188.903 119.144 188.903 119.486V119.939H185.229V119.179H187.857V119.095C187.852 118.905 187.813 118.726 187.743 118.559C187.676 118.392 187.572 118.257 187.431 118.155C187.291 118.052 187.103 118.001 186.869 118.001C186.693 118.001 186.536 118.039 186.398 118.115C186.264 118.188 186.151 118.295 186.06 118.436C185.969 118.577 185.899 118.747 185.849 118.946C185.802 119.142 185.779 119.363 185.779 119.609V119.785C185.779 119.993 185.807 120.187 185.862 120.365C185.921 120.541 186.006 120.695 186.117 120.827C186.229 120.958 186.363 121.062 186.521 121.139C186.68 121.212 186.86 121.249 187.062 121.249C187.317 121.249 187.544 121.197 187.743 121.095C187.942 120.992 188.115 120.847 188.262 120.66L188.82 121.2C188.717 121.35 188.584 121.493 188.42 121.631C188.256 121.766 188.055 121.875 187.818 121.96C187.583 122.045 187.311 122.088 187 122.088ZM190.863 115.25V122H189.8V115.25H190.863ZM193.087 118.159V123.828H192.028V117.245H193.003L193.087 118.159ZM196.185 119.579V119.671C196.185 120.017 196.144 120.337 196.062 120.633C195.983 120.926 195.864 121.183 195.706 121.402C195.551 121.619 195.359 121.788 195.13 121.908C194.902 122.028 194.638 122.088 194.339 122.088C194.043 122.088 193.784 122.034 193.562 121.925C193.342 121.814 193.156 121.657 193.003 121.455C192.851 121.253 192.728 121.016 192.634 120.743C192.543 120.468 192.479 120.166 192.441 119.838V119.482C192.479 119.133 192.543 118.817 192.634 118.533C192.728 118.249 192.851 118.004 193.003 117.799C193.156 117.594 193.342 117.436 193.562 117.324C193.781 117.213 194.038 117.157 194.331 117.157C194.629 117.157 194.895 117.216 195.126 117.333C195.357 117.447 195.552 117.611 195.71 117.825C195.869 118.036 195.987 118.291 196.066 118.59C196.146 118.886 196.185 119.215 196.185 119.579ZM195.126 119.671V119.579C195.126 119.359 195.105 119.155 195.064 118.968C195.023 118.777 194.959 118.61 194.871 118.467C194.783 118.323 194.67 118.212 194.533 118.133C194.398 118.051 194.235 118.01 194.045 118.01C193.857 118.01 193.696 118.042 193.562 118.106C193.427 118.168 193.314 118.254 193.223 118.366C193.132 118.477 193.062 118.607 193.012 118.757C192.962 118.903 192.927 119.063 192.907 119.236V120.088C192.942 120.299 193.002 120.493 193.087 120.668C193.172 120.844 193.292 120.985 193.447 121.09C193.605 121.193 193.808 121.244 194.054 121.244C194.244 121.244 194.407 121.203 194.542 121.121C194.676 121.039 194.786 120.926 194.871 120.783C194.959 120.636 195.023 120.468 195.064 120.277C195.105 120.087 195.126 119.885 195.126 119.671ZM200.707 121.481L201.999 117.245H203.133L201.226 122.725C201.182 122.842 201.125 122.97 201.054 123.107C200.984 123.245 200.892 123.375 200.777 123.499C200.666 123.625 200.527 123.726 200.36 123.802C200.193 123.881 199.991 123.92 199.753 123.92C199.66 123.92 199.569 123.912 199.481 123.894C199.396 123.879 199.315 123.863 199.239 123.846L199.235 123.037C199.264 123.04 199.299 123.043 199.34 123.046C199.384 123.049 199.419 123.05 199.446 123.05C199.622 123.05 199.768 123.028 199.885 122.984C200.002 122.943 200.098 122.876 200.171 122.782C200.247 122.688 200.312 122.562 200.364 122.404L200.707 121.481ZM199.978 117.245L201.107 120.805L201.296 121.921L200.562 122.11L198.835 117.245H199.978ZM203.467 119.675V119.574C203.467 119.231 203.517 118.914 203.616 118.621C203.716 118.325 203.859 118.068 204.047 117.852C204.237 117.632 204.469 117.462 204.741 117.342C205.017 117.219 205.327 117.157 205.673 117.157C206.021 117.157 206.332 117.219 206.604 117.342C206.88 117.462 207.113 117.632 207.303 117.852C207.494 118.068 207.639 118.325 207.738 118.621C207.838 118.914 207.888 119.231 207.888 119.574V119.675C207.888 120.018 207.838 120.336 207.738 120.629C207.639 120.922 207.494 121.178 207.303 121.398C207.113 121.615 206.881 121.785 206.609 121.908C206.336 122.028 206.027 122.088 205.682 122.088C205.333 122.088 205.021 122.028 204.746 121.908C204.473 121.785 204.242 121.615 204.051 121.398C203.861 121.178 203.716 120.922 203.616 120.629C203.517 120.336 203.467 120.018 203.467 119.675ZM204.526 119.574V119.675C204.526 119.889 204.548 120.091 204.592 120.282C204.636 120.472 204.705 120.639 204.798 120.783C204.892 120.926 205.012 121.039 205.159 121.121C205.305 121.203 205.479 121.244 205.682 121.244C205.878 121.244 206.048 121.203 206.191 121.121C206.338 121.039 206.458 120.926 206.552 120.783C206.646 120.639 206.714 120.472 206.758 120.282C206.805 120.091 206.829 119.889 206.829 119.675V119.574C206.829 119.363 206.805 119.164 206.758 118.977C206.714 118.786 206.644 118.618 206.547 118.471C206.454 118.325 206.333 118.21 206.187 118.128C206.043 118.043 205.872 118.001 205.673 118.001C205.474 118.001 205.301 118.043 205.154 118.128C205.011 118.21 204.892 118.325 204.798 118.471C204.705 118.618 204.636 118.786 204.592 118.977C204.548 119.164 204.526 119.363 204.526 119.574ZM211.636 120.879V117.245H212.7V122H211.698L211.636 120.879ZM211.786 119.891L212.142 119.882C212.142 120.201 212.106 120.496 212.036 120.765C211.966 121.032 211.857 121.265 211.711 121.464C211.564 121.66 211.377 121.814 211.148 121.925C210.92 122.034 210.646 122.088 210.327 122.088C210.095 122.088 209.883 122.054 209.689 121.987C209.496 121.919 209.329 121.815 209.188 121.675C209.051 121.534 208.944 121.351 208.868 121.125C208.792 120.9 208.753 120.63 208.753 120.317V117.245H209.812V120.326C209.812 120.499 209.833 120.644 209.874 120.761C209.915 120.875 209.971 120.967 210.041 121.038C210.111 121.108 210.193 121.158 210.287 121.187C210.381 121.216 210.48 121.231 210.586 121.231C210.888 121.231 211.125 121.172 211.298 121.055C211.474 120.935 211.598 120.774 211.671 120.572C211.748 120.37 211.786 120.143 211.786 119.891ZM217.072 115.25V122H216.018V115.25H217.072ZM216.888 119.447L216.545 119.442C216.548 119.114 216.593 118.811 216.681 118.533C216.772 118.254 216.898 118.013 217.059 117.808C217.223 117.6 217.419 117.44 217.648 117.329C217.876 117.214 218.13 117.157 218.408 117.157C218.643 117.157 218.854 117.189 219.041 117.254C219.231 117.318 219.396 117.422 219.533 117.566C219.671 117.707 219.775 117.891 219.845 118.12C219.918 118.345 219.955 118.621 219.955 118.946V122H218.892V118.937C218.892 118.708 218.858 118.527 218.791 118.392C218.726 118.257 218.631 118.161 218.505 118.102C218.379 118.041 218.225 118.01 218.043 118.01C217.853 118.01 217.685 118.048 217.538 118.124C217.395 118.2 217.274 118.304 217.178 118.436C217.081 118.568 217.008 118.72 216.958 118.893C216.911 119.066 216.888 119.25 216.888 119.447ZM223.708 121.046V118.779C223.708 118.609 223.677 118.462 223.616 118.339C223.554 118.216 223.46 118.121 223.334 118.054C223.211 117.986 223.056 117.953 222.869 117.953C222.696 117.953 222.546 117.982 222.42 118.041C222.294 118.099 222.196 118.178 222.126 118.278C222.056 118.377 222.021 118.49 222.021 118.616H220.966C220.966 118.429 221.011 118.247 221.102 118.071C221.193 117.896 221.325 117.739 221.498 117.601C221.67 117.463 221.877 117.355 222.117 117.276C222.357 117.197 222.627 117.157 222.926 117.157C223.283 117.157 223.6 117.217 223.875 117.337C224.153 117.458 224.372 117.639 224.53 117.882C224.691 118.123 224.771 118.424 224.771 118.788V120.901C224.771 121.118 224.786 121.313 224.815 121.486C224.848 121.656 224.893 121.804 224.952 121.93V122H223.866C223.816 121.886 223.777 121.741 223.748 121.565C223.721 121.386 223.708 121.213 223.708 121.046ZM223.862 119.108L223.871 119.763H223.11C222.914 119.763 222.741 119.782 222.592 119.82C222.442 119.855 222.318 119.908 222.218 119.979C222.119 120.049 222.044 120.134 221.994 120.233C221.944 120.333 221.919 120.446 221.919 120.572C221.919 120.698 221.949 120.813 222.007 120.919C222.066 121.021 222.151 121.102 222.262 121.161C222.376 121.219 222.514 121.249 222.675 121.249C222.892 121.249 223.081 121.205 223.242 121.117C223.406 121.026 223.535 120.916 223.629 120.787C223.723 120.655 223.772 120.531 223.778 120.414L224.121 120.884C224.086 121.004 224.026 121.133 223.941 121.271C223.856 121.408 223.745 121.54 223.607 121.666C223.472 121.789 223.31 121.89 223.119 121.969C222.932 122.048 222.715 122.088 222.469 122.088C222.158 122.088 221.881 122.026 221.638 121.903C221.395 121.777 221.205 121.609 221.067 121.398C220.929 121.184 220.86 120.942 220.86 120.673C220.86 120.421 220.907 120.198 221.001 120.005C221.098 119.809 221.238 119.645 221.423 119.513C221.61 119.381 221.839 119.281 222.108 119.214C222.378 119.144 222.686 119.108 223.031 119.108H223.862ZM227.355 121.161L228.52 117.245H229.619L227.966 122H227.281L227.355 121.161ZM226.463 117.245L227.65 121.178L227.707 122H227.021L225.36 117.245H226.463ZM232.308 122.088C231.957 122.088 231.639 122.031 231.354 121.917C231.073 121.799 230.833 121.637 230.634 121.429C230.438 121.221 230.287 120.976 230.181 120.695C230.076 120.414 230.023 120.11 230.023 119.785V119.609C230.023 119.237 230.077 118.9 230.186 118.599C230.294 118.297 230.445 118.039 230.638 117.825C230.832 117.608 231.06 117.443 231.324 117.329C231.587 117.214 231.873 117.157 232.181 117.157C232.521 117.157 232.818 117.214 233.073 117.329C233.328 117.443 233.539 117.604 233.706 117.812C233.875 118.017 234.001 118.262 234.083 118.546C234.168 118.83 234.211 119.144 234.211 119.486V119.939H230.537V119.179H233.165V119.095C233.159 118.905 233.121 118.726 233.051 118.559C232.983 118.392 232.879 118.257 232.739 118.155C232.598 118.052 232.411 118.001 232.176 118.001C232 118.001 231.844 118.039 231.706 118.115C231.571 118.188 231.458 118.295 231.368 118.436C231.277 118.577 231.207 118.747 231.157 118.946C231.11 119.142 231.086 119.363 231.086 119.609V119.785C231.086 119.993 231.114 120.187 231.17 120.365C231.229 120.541 231.313 120.695 231.425 120.827C231.536 120.958 231.671 121.062 231.829 121.139C231.987 121.212 232.167 121.249 232.37 121.249C232.625 121.249 232.852 121.197 233.051 121.095C233.25 120.992 233.423 120.847 233.569 120.66L234.127 121.2C234.025 121.35 233.892 121.493 233.728 121.631C233.563 121.766 233.363 121.875 233.125 121.96C232.891 122.045 232.619 122.088 232.308 122.088ZM239.959 121.046V118.779C239.959 118.609 239.928 118.462 239.867 118.339C239.805 118.216 239.711 118.121 239.585 118.054C239.462 117.986 239.307 117.953 239.12 117.953C238.947 117.953 238.797 117.982 238.671 118.041C238.545 118.099 238.447 118.178 238.377 118.278C238.307 118.377 238.271 118.49 238.271 118.616H237.217C237.217 118.429 237.262 118.247 237.353 118.071C237.444 117.896 237.576 117.739 237.749 117.601C237.921 117.463 238.128 117.355 238.368 117.276C238.608 117.197 238.878 117.157 239.177 117.157C239.534 117.157 239.851 117.217 240.126 117.337C240.404 117.458 240.623 117.639 240.781 117.882C240.942 118.123 241.022 118.424 241.022 118.788V120.901C241.022 121.118 241.037 121.313 241.066 121.486C241.099 121.656 241.144 121.804 241.203 121.93V122H240.117C240.067 121.886 240.028 121.741 239.999 121.565C239.972 121.386 239.959 121.213 239.959 121.046ZM240.113 119.108L240.122 119.763H239.361C239.165 119.763 238.992 119.782 238.843 119.82C238.693 119.855 238.569 119.908 238.469 119.979C238.37 120.049 238.295 120.134 238.245 120.233C238.195 120.333 238.17 120.446 238.17 120.572C238.17 120.698 238.2 120.813 238.258 120.919C238.317 121.021 238.402 121.102 238.513 121.161C238.627 121.219 238.765 121.249 238.926 121.249C239.143 121.249 239.332 121.205 239.493 121.117C239.657 121.026 239.786 120.916 239.88 120.787C239.974 120.655 240.023 120.531 240.029 120.414L240.372 120.884C240.337 121.004 240.277 121.133 240.192 121.271C240.107 121.408 239.996 121.54 239.858 121.666C239.723 121.789 239.561 121.89 239.37 121.969C239.183 122.048 238.966 122.088 238.72 122.088C238.409 122.088 238.132 122.026 237.889 121.903C237.646 121.777 237.456 121.609 237.318 121.398C237.18 121.184 237.111 120.942 237.111 120.673C237.111 120.421 237.158 120.198 237.252 120.005C237.349 119.809 237.489 119.645 237.674 119.513C237.861 119.381 238.09 119.281 238.359 119.214C238.629 119.144 238.937 119.108 239.282 119.108H240.113ZM247.039 120.712C247.039 120.607 247.012 120.512 246.959 120.427C246.907 120.339 246.806 120.26 246.656 120.189C246.51 120.119 246.293 120.055 246.006 119.996C245.754 119.94 245.522 119.875 245.312 119.798C245.104 119.719 244.925 119.624 244.775 119.513C244.626 119.401 244.51 119.27 244.428 119.117C244.346 118.965 244.305 118.789 244.305 118.59C244.305 118.396 244.348 118.213 244.433 118.041C244.518 117.868 244.639 117.715 244.797 117.583C244.956 117.452 245.147 117.348 245.373 117.271C245.602 117.195 245.856 117.157 246.138 117.157C246.536 117.157 246.877 117.225 247.162 117.359C247.449 117.491 247.668 117.671 247.821 117.9C247.973 118.125 248.049 118.38 248.049 118.665H246.99C246.99 118.539 246.958 118.421 246.894 118.313C246.832 118.202 246.738 118.112 246.612 118.045C246.486 117.975 246.328 117.939 246.138 117.939C245.956 117.939 245.805 117.969 245.685 118.027C245.568 118.083 245.48 118.156 245.421 118.247C245.366 118.338 245.338 118.438 245.338 118.546C245.338 118.625 245.353 118.697 245.382 118.761C245.414 118.823 245.467 118.88 245.54 118.933C245.613 118.982 245.713 119.029 245.839 119.073C245.968 119.117 246.129 119.16 246.322 119.201C246.686 119.277 246.998 119.375 247.258 119.495C247.522 119.612 247.724 119.765 247.865 119.952C248.005 120.137 248.076 120.371 248.076 120.655C248.076 120.866 248.03 121.06 247.939 121.235C247.852 121.408 247.723 121.559 247.553 121.688C247.383 121.814 247.179 121.912 246.942 121.982C246.708 122.053 246.444 122.088 246.151 122.088C245.72 122.088 245.355 122.012 245.057 121.859C244.758 121.704 244.531 121.506 244.375 121.266C244.223 121.023 244.147 120.771 244.147 120.51H245.171C245.183 120.707 245.237 120.863 245.333 120.98C245.433 121.095 245.556 121.178 245.703 121.231C245.852 121.281 246.006 121.306 246.164 121.306C246.354 121.306 246.514 121.281 246.643 121.231C246.772 121.178 246.87 121.108 246.938 121.02C247.005 120.929 247.039 120.827 247.039 120.712ZM250.137 117.245V122H249.073V117.245H250.137ZM249.003 115.997C249.003 115.836 249.056 115.703 249.161 115.597C249.27 115.489 249.419 115.435 249.609 115.435C249.797 115.435 249.945 115.489 250.053 115.597C250.162 115.703 250.216 115.836 250.216 115.997C250.216 116.155 250.162 116.287 250.053 116.393C249.945 116.498 249.797 116.551 249.609 116.551C249.419 116.551 249.27 116.498 249.161 116.393C249.056 116.287 249.003 116.155 249.003 115.997ZM254.197 121.016V115.25H255.261V122H254.298L254.197 121.016ZM251.104 119.675V119.583C251.104 119.223 251.146 118.895 251.231 118.599C251.316 118.3 251.439 118.043 251.6 117.83C251.761 117.613 251.958 117.447 252.189 117.333C252.42 117.216 252.681 117.157 252.971 117.157C253.258 117.157 253.51 117.213 253.727 117.324C253.944 117.436 254.128 117.595 254.281 117.803C254.433 118.008 254.555 118.254 254.646 118.542C254.736 118.826 254.801 119.142 254.839 119.491V119.785C254.801 120.125 254.736 120.436 254.646 120.717C254.555 120.998 254.433 121.241 254.281 121.446C254.128 121.651 253.942 121.81 253.723 121.921C253.506 122.032 253.252 122.088 252.962 122.088C252.675 122.088 252.416 122.028 252.185 121.908C251.956 121.788 251.761 121.619 251.6 121.402C251.439 121.186 251.316 120.931 251.231 120.638C251.146 120.342 251.104 120.021 251.104 119.675ZM252.163 119.583V119.675C252.163 119.892 252.182 120.094 252.22 120.282C252.261 120.469 252.324 120.635 252.409 120.778C252.494 120.919 252.604 121.03 252.738 121.112C252.876 121.191 253.04 121.231 253.23 121.231C253.471 121.231 253.668 121.178 253.824 121.073C253.979 120.967 254.101 120.825 254.188 120.646C254.279 120.465 254.341 120.263 254.373 120.04V119.245C254.355 119.072 254.319 118.911 254.263 118.761C254.21 118.612 254.139 118.481 254.048 118.37C253.957 118.256 253.844 118.168 253.709 118.106C253.578 118.042 253.421 118.01 253.239 118.01C253.046 118.01 252.882 118.051 252.747 118.133C252.612 118.215 252.501 118.328 252.413 118.471C252.328 118.615 252.265 118.782 252.224 118.972C252.183 119.163 252.163 119.366 252.163 119.583ZM258.464 122.088C258.113 122.088 257.795 122.031 257.511 121.917C257.229 121.799 256.989 121.637 256.79 121.429C256.594 121.221 256.443 120.976 256.337 120.695C256.232 120.414 256.179 120.11 256.179 119.785V119.609C256.179 119.237 256.233 118.9 256.342 118.599C256.45 118.297 256.601 118.039 256.794 117.825C256.988 117.608 257.216 117.443 257.48 117.329C257.744 117.214 258.029 117.157 258.337 117.157C258.677 117.157 258.974 117.214 259.229 117.329C259.484 117.443 259.695 117.604 259.862 117.812C260.032 118.017 260.158 118.262 260.24 118.546C260.325 118.83 260.367 119.144 260.367 119.486V119.939H256.693V119.179H259.321V119.095C259.315 118.905 259.277 118.726 259.207 118.559C259.14 118.392 259.036 118.257 258.895 118.155C258.754 118.052 258.567 118.001 258.333 118.001C258.157 118.001 258 118.039 257.862 118.115C257.728 118.188 257.615 118.295 257.524 118.436C257.433 118.577 257.363 118.747 257.313 118.946C257.266 119.142 257.243 119.363 257.243 119.609V119.785C257.243 119.993 257.271 120.187 257.326 120.365C257.385 120.541 257.47 120.695 257.581 120.827C257.692 120.958 257.827 121.062 257.985 121.139C258.144 121.212 258.324 121.249 258.526 121.249C258.781 121.249 259.008 121.197 259.207 121.095C259.406 120.992 259.579 120.847 259.726 120.66L260.284 121.2C260.181 121.35 260.048 121.493 259.884 121.631C259.72 121.766 259.519 121.875 259.282 121.96C259.047 122.045 258.775 122.088 258.464 122.088ZM121.087 128.245V133H120.023V128.245H121.087ZM119.953 126.997C119.953 126.836 120.006 126.703 120.111 126.597C120.22 126.489 120.369 126.435 120.56 126.435C120.747 126.435 120.895 126.489 121.003 126.597C121.112 126.703 121.166 126.836 121.166 126.997C121.166 127.155 121.112 127.287 121.003 127.393C120.895 127.498 120.747 127.551 120.56 127.551C120.369 127.551 120.22 127.498 120.111 127.393C120.006 127.287 119.953 127.155 119.953 126.997ZM123.297 129.26V133H122.238V128.245H123.236L123.297 129.26ZM123.108 130.447L122.766 130.442C122.769 130.105 122.815 129.796 122.906 129.515C123 129.234 123.129 128.992 123.293 128.79C123.46 128.588 123.659 128.433 123.891 128.324C124.122 128.213 124.38 128.157 124.664 128.157C124.893 128.157 125.099 128.189 125.284 128.254C125.471 128.315 125.631 128.417 125.763 128.557C125.897 128.698 126 128.881 126.07 129.106C126.141 129.329 126.176 129.603 126.176 129.928V133H125.112V129.924C125.112 129.695 125.079 129.515 125.011 129.383C124.947 129.249 124.852 129.153 124.726 129.098C124.603 129.039 124.449 129.01 124.264 129.01C124.083 129.01 123.92 129.048 123.776 129.124C123.633 129.2 123.511 129.304 123.412 129.436C123.315 129.568 123.24 129.72 123.188 129.893C123.135 130.066 123.108 130.25 123.108 130.447ZM129.199 132.244C129.372 132.244 129.527 132.21 129.665 132.143C129.806 132.073 129.918 131.976 130.003 131.853C130.091 131.73 130.14 131.588 130.148 131.427H131.146C131.14 131.734 131.049 132.014 130.874 132.266C130.698 132.518 130.465 132.719 130.175 132.868C129.885 133.015 129.564 133.088 129.212 133.088C128.849 133.088 128.533 133.026 128.263 132.903C127.994 132.777 127.77 132.604 127.591 132.385C127.412 132.165 127.277 131.912 127.187 131.625C127.099 131.337 127.055 131.03 127.055 130.702V130.548C127.055 130.22 127.099 129.912 127.187 129.625C127.277 129.335 127.412 129.08 127.591 128.86C127.77 128.641 127.994 128.469 128.263 128.346C128.533 128.22 128.848 128.157 129.208 128.157C129.589 128.157 129.923 128.233 130.21 128.386C130.497 128.535 130.723 128.745 130.887 129.014C131.054 129.281 131.14 129.591 131.146 129.946H130.148C130.14 129.77 130.096 129.612 130.017 129.471C129.94 129.328 129.832 129.213 129.691 129.128C129.554 129.043 129.388 129.001 129.195 129.001C128.981 129.001 128.804 129.045 128.663 129.133C128.522 129.218 128.413 129.335 128.333 129.484C128.254 129.631 128.197 129.796 128.162 129.981C128.13 130.163 128.114 130.352 128.114 130.548V130.702C128.114 130.898 128.13 131.088 128.162 131.273C128.194 131.458 128.25 131.623 128.329 131.77C128.411 131.913 128.522 132.029 128.663 132.117C128.804 132.202 128.982 132.244 129.199 132.244ZM131.757 130.675V130.574C131.757 130.231 131.807 129.914 131.906 129.621C132.006 129.325 132.149 129.068 132.337 128.852C132.527 128.632 132.759 128.462 133.031 128.342C133.307 128.219 133.617 128.157 133.963 128.157C134.312 128.157 134.622 128.219 134.895 128.342C135.17 128.462 135.403 128.632 135.593 128.852C135.784 129.068 135.929 129.325 136.028 129.621C136.128 129.914 136.178 130.231 136.178 130.574V130.675C136.178 131.018 136.128 131.336 136.028 131.629C135.929 131.922 135.784 132.178 135.593 132.398C135.403 132.615 135.171 132.785 134.899 132.908C134.626 133.028 134.317 133.088 133.972 133.088C133.623 133.088 133.311 133.028 133.036 132.908C132.763 132.785 132.532 132.615 132.341 132.398C132.151 132.178 132.006 131.922 131.906 131.629C131.807 131.336 131.757 131.018 131.757 130.675ZM132.816 130.574V130.675C132.816 130.889 132.838 131.091 132.882 131.282C132.926 131.472 132.995 131.639 133.088 131.783C133.182 131.926 133.302 132.039 133.449 132.121C133.595 132.203 133.77 132.244 133.972 132.244C134.168 132.244 134.338 132.203 134.481 132.121C134.628 132.039 134.748 131.926 134.842 131.783C134.936 131.639 135.004 131.472 135.048 131.282C135.095 131.091 135.119 130.889 135.119 130.675V130.574C135.119 130.363 135.095 130.164 135.048 129.977C135.004 129.786 134.934 129.618 134.837 129.471C134.744 129.325 134.624 129.21 134.477 129.128C134.333 129.043 134.162 129.001 133.963 129.001C133.764 129.001 133.591 129.043 133.444 129.128C133.301 129.21 133.182 129.325 133.088 129.471C132.995 129.618 132.926 129.786 132.882 129.977C132.838 130.164 132.816 130.363 132.816 130.574ZM138.125 129.212V133H137.065V128.245H138.063L138.125 129.212ZM137.953 130.447L137.593 130.442C137.593 130.114 137.634 129.811 137.716 129.533C137.798 129.254 137.918 129.013 138.076 128.808C138.234 128.6 138.431 128.44 138.665 128.329C138.902 128.214 139.176 128.157 139.487 128.157C139.704 128.157 139.901 128.189 140.08 128.254C140.262 128.315 140.418 128.414 140.55 128.548C140.685 128.683 140.788 128.856 140.858 129.067C140.931 129.278 140.968 129.533 140.968 129.832V133H139.909V129.924C139.909 129.692 139.874 129.511 139.803 129.379C139.736 129.247 139.638 129.153 139.509 129.098C139.383 129.039 139.232 129.01 139.056 129.01C138.857 129.01 138.687 129.048 138.546 129.124C138.409 129.2 138.296 129.304 138.208 129.436C138.12 129.568 138.056 129.72 138.015 129.893C137.974 130.066 137.953 130.25 137.953 130.447ZM140.902 130.166L140.405 130.275C140.405 129.988 140.445 129.717 140.524 129.462C140.606 129.205 140.725 128.979 140.88 128.786C141.038 128.589 141.233 128.436 141.464 128.324C141.696 128.213 141.961 128.157 142.26 128.157C142.503 128.157 142.72 128.191 142.91 128.258C143.104 128.323 143.268 128.425 143.402 128.566C143.537 128.707 143.64 128.89 143.71 129.115C143.78 129.338 143.815 129.607 143.815 129.924V133H142.752V129.919C142.752 129.679 142.717 129.493 142.646 129.361C142.579 129.229 142.482 129.139 142.356 129.089C142.23 129.036 142.08 129.01 141.904 129.01C141.74 129.01 141.595 129.041 141.469 129.102C141.346 129.161 141.242 129.244 141.157 129.353C141.072 129.458 141.007 129.58 140.963 129.717C140.922 129.855 140.902 130.004 140.902 130.166ZM147.001 133.088C146.65 133.088 146.332 133.031 146.048 132.917C145.767 132.799 145.526 132.637 145.327 132.429C145.131 132.221 144.98 131.976 144.875 131.695C144.769 131.414 144.716 131.11 144.716 130.785V130.609C144.716 130.237 144.771 129.9 144.879 129.599C144.987 129.297 145.138 129.039 145.332 128.825C145.525 128.608 145.753 128.443 146.017 128.329C146.281 128.214 146.566 128.157 146.874 128.157C147.214 128.157 147.511 128.214 147.766 128.329C148.021 128.443 148.232 128.604 148.399 128.812C148.569 129.017 148.695 129.262 148.777 129.546C148.862 129.83 148.904 130.144 148.904 130.486V130.939H145.23V130.179H147.858V130.095C147.853 129.905 147.814 129.726 147.744 129.559C147.677 129.392 147.573 129.257 147.432 129.155C147.292 129.052 147.104 129.001 146.87 129.001C146.694 129.001 146.537 129.039 146.399 129.115C146.265 129.188 146.152 129.295 146.061 129.436C145.97 129.577 145.9 129.747 145.85 129.946C145.803 130.142 145.78 130.363 145.78 130.609V130.785C145.78 130.993 145.808 131.187 145.863 131.365C145.922 131.541 146.007 131.695 146.118 131.827C146.229 131.958 146.364 132.062 146.522 132.139C146.681 132.212 146.861 132.249 147.063 132.249C147.318 132.249 147.545 132.197 147.744 132.095C147.943 131.992 148.116 131.847 148.263 131.66L148.821 132.2C148.718 132.35 148.585 132.493 148.421 132.631C148.257 132.766 148.056 132.875 147.819 132.96C147.584 133.045 147.312 133.088 147.001 133.088ZM154.652 132.046V129.779C154.652 129.609 154.622 129.462 154.56 129.339C154.499 129.216 154.405 129.121 154.279 129.054C154.156 128.986 154 128.953 153.813 128.953C153.64 128.953 153.491 128.982 153.365 129.041C153.239 129.099 153.141 129.178 153.07 129.278C153 129.377 152.965 129.49 152.965 129.616H151.91C151.91 129.429 151.956 129.247 152.046 129.071C152.137 128.896 152.269 128.739 152.442 128.601C152.615 128.463 152.821 128.355 153.062 128.276C153.302 128.197 153.571 128.157 153.87 128.157C154.228 128.157 154.544 128.217 154.819 128.337C155.098 128.458 155.316 128.639 155.474 128.882C155.635 129.123 155.716 129.424 155.716 129.788V131.901C155.716 132.118 155.73 132.313 155.76 132.486C155.792 132.656 155.837 132.804 155.896 132.93V133H154.811C154.761 132.886 154.721 132.741 154.692 132.565C154.666 132.386 154.652 132.213 154.652 132.046ZM154.806 130.108L154.815 130.763H154.055C153.858 130.763 153.686 130.782 153.536 130.82C153.387 130.855 153.262 130.908 153.163 130.979C153.063 131.049 152.988 131.134 152.938 131.233C152.889 131.333 152.864 131.446 152.864 131.572C152.864 131.698 152.893 131.813 152.952 131.919C153.01 132.021 153.095 132.102 153.207 132.161C153.321 132.219 153.458 132.249 153.62 132.249C153.836 132.249 154.025 132.205 154.187 132.117C154.351 132.026 154.479 131.916 154.573 131.787C154.667 131.655 154.717 131.531 154.723 131.414L155.065 131.884C155.03 132.004 154.97 132.133 154.885 132.271C154.8 132.408 154.689 132.54 154.551 132.666C154.417 132.789 154.254 132.89 154.063 132.969C153.876 133.048 153.659 133.088 153.413 133.088C153.103 133.088 152.826 133.026 152.583 132.903C152.339 132.777 152.149 132.609 152.011 132.398C151.874 132.184 151.805 131.942 151.805 131.673C151.805 131.421 151.852 131.198 151.945 131.005C152.042 130.809 152.183 130.645 152.367 130.513C152.555 130.381 152.783 130.281 153.053 130.214C153.322 130.144 153.63 130.108 153.976 130.108H154.806ZM157.874 129.26V133H156.814V128.245H157.812L157.874 129.26ZM157.685 130.447L157.342 130.442C157.345 130.105 157.392 129.796 157.482 129.515C157.576 129.234 157.705 128.992 157.869 128.79C158.036 128.588 158.235 128.433 158.467 128.324C158.698 128.213 158.956 128.157 159.24 128.157C159.469 128.157 159.675 128.189 159.86 128.254C160.047 128.315 160.207 128.417 160.339 128.557C160.474 128.698 160.576 128.881 160.646 129.106C160.717 129.329 160.752 129.603 160.752 129.928V133H159.688V129.924C159.688 129.695 159.655 129.515 159.587 129.383C159.523 129.249 159.428 129.153 159.302 129.098C159.179 129.039 159.025 129.01 158.84 129.01C158.659 129.01 158.496 129.048 158.353 129.124C158.209 129.2 158.087 129.304 157.988 129.436C157.891 129.568 157.816 129.72 157.764 129.893C157.711 130.066 157.685 130.25 157.685 130.447ZM164.733 132.016V126.25H165.797V133H164.834L164.733 132.016ZM161.64 130.675V130.583C161.64 130.223 161.682 129.895 161.767 129.599C161.852 129.3 161.975 129.043 162.136 128.83C162.297 128.613 162.494 128.447 162.725 128.333C162.957 128.216 163.217 128.157 163.507 128.157C163.794 128.157 164.046 128.213 164.263 128.324C164.48 128.436 164.665 128.595 164.817 128.803C164.969 129.008 165.091 129.254 165.182 129.542C165.272 129.826 165.337 130.142 165.375 130.491V130.785C165.337 131.125 165.272 131.436 165.182 131.717C165.091 131.998 164.969 132.241 164.817 132.446C164.665 132.651 164.479 132.81 164.259 132.921C164.042 133.032 163.789 133.088 163.499 133.088C163.211 133.088 162.952 133.028 162.721 132.908C162.492 132.788 162.297 132.619 162.136 132.402C161.975 132.186 161.852 131.931 161.767 131.638C161.682 131.342 161.64 131.021 161.64 130.675ZM162.699 130.583V130.675C162.699 130.892 162.718 131.094 162.756 131.282C162.797 131.469 162.86 131.635 162.945 131.778C163.03 131.919 163.14 132.03 163.274 132.112C163.412 132.191 163.576 132.231 163.767 132.231C164.007 132.231 164.205 132.178 164.36 132.073C164.515 131.967 164.637 131.825 164.725 131.646C164.815 131.465 164.877 131.263 164.909 131.04V130.245C164.892 130.072 164.855 129.911 164.799 129.761C164.747 129.612 164.675 129.481 164.584 129.37C164.493 129.256 164.38 129.168 164.246 129.106C164.114 129.042 163.957 129.01 163.775 129.01C163.582 129.01 163.418 129.051 163.283 129.133C163.148 129.215 163.037 129.328 162.949 129.471C162.864 129.615 162.801 129.782 162.76 129.972C162.719 130.163 162.699 130.366 162.699 130.583ZM171.813 131.712C171.813 131.607 171.787 131.512 171.734 131.427C171.681 131.339 171.58 131.26 171.431 131.189C171.284 131.119 171.067 131.055 170.78 130.996C170.528 130.94 170.297 130.875 170.086 130.798C169.878 130.719 169.699 130.624 169.55 130.513C169.4 130.401 169.285 130.27 169.203 130.117C169.121 129.965 169.08 129.789 169.08 129.59C169.08 129.396 169.122 129.213 169.207 129.041C169.292 128.868 169.414 128.715 169.572 128.583C169.73 128.452 169.922 128.348 170.147 128.271C170.376 128.195 170.631 128.157 170.912 128.157C171.311 128.157 171.652 128.225 171.936 128.359C172.223 128.491 172.443 128.671 172.595 128.9C172.748 129.125 172.824 129.38 172.824 129.665H171.765C171.765 129.539 171.732 129.421 171.668 129.313C171.606 129.202 171.513 129.112 171.387 129.045C171.261 128.975 171.103 128.939 170.912 128.939C170.73 128.939 170.58 128.969 170.459 129.027C170.342 129.083 170.254 129.156 170.196 129.247C170.14 129.338 170.112 129.438 170.112 129.546C170.112 129.625 170.127 129.697 170.156 129.761C170.188 129.823 170.241 129.88 170.314 129.933C170.388 129.982 170.487 130.029 170.613 130.073C170.742 130.117 170.903 130.16 171.097 130.201C171.46 130.277 171.772 130.375 172.033 130.495C172.296 130.612 172.499 130.765 172.639 130.952C172.78 131.137 172.85 131.371 172.85 131.655C172.85 131.866 172.805 132.06 172.714 132.235C172.626 132.408 172.497 132.559 172.327 132.688C172.157 132.814 171.954 132.912 171.716 132.982C171.482 133.053 171.218 133.088 170.925 133.088C170.495 133.088 170.13 133.012 169.831 132.859C169.532 132.704 169.305 132.506 169.15 132.266C168.998 132.023 168.921 131.771 168.921 131.51H169.945C169.957 131.707 170.011 131.863 170.108 131.98C170.208 132.095 170.331 132.178 170.477 132.231C170.626 132.281 170.78 132.306 170.938 132.306C171.129 132.306 171.289 132.281 171.417 132.231C171.546 132.178 171.645 132.108 171.712 132.02C171.779 131.929 171.813 131.827 171.813 131.712ZM176.638 131.879V128.245H177.702V133H176.7L176.638 131.879ZM176.788 130.891L177.144 130.882C177.144 131.201 177.108 131.496 177.038 131.765C176.968 132.032 176.859 132.265 176.713 132.464C176.566 132.66 176.379 132.814 176.15 132.925C175.922 133.034 175.648 133.088 175.329 133.088C175.097 133.088 174.885 133.054 174.691 132.987C174.498 132.919 174.331 132.815 174.19 132.675C174.053 132.534 173.946 132.351 173.87 132.125C173.793 131.9 173.755 131.63 173.755 131.317V128.245H174.814V131.326C174.814 131.499 174.835 131.644 174.876 131.761C174.917 131.875 174.973 131.967 175.043 132.038C175.113 132.108 175.195 132.158 175.289 132.187C175.383 132.216 175.482 132.231 175.588 132.231C175.89 132.231 176.127 132.172 176.3 132.055C176.476 131.935 176.6 131.774 176.673 131.572C176.75 131.37 176.788 131.143 176.788 130.891ZM179.851 129.159V134.828H178.792V128.245H179.767L179.851 129.159ZM182.949 130.579V130.671C182.949 131.017 182.908 131.337 182.826 131.633C182.747 131.926 182.628 132.183 182.47 132.402C182.314 132.619 182.123 132.788 181.894 132.908C181.666 133.028 181.402 133.088 181.103 133.088C180.807 133.088 180.548 133.034 180.325 132.925C180.105 132.814 179.919 132.657 179.767 132.455C179.615 132.253 179.492 132.016 179.398 131.743C179.307 131.468 179.243 131.166 179.205 130.838V130.482C179.243 130.133 179.307 129.817 179.398 129.533C179.492 129.249 179.615 129.004 179.767 128.799C179.919 128.594 180.105 128.436 180.325 128.324C180.545 128.213 180.801 128.157 181.094 128.157C181.393 128.157 181.658 128.216 181.89 128.333C182.121 128.447 182.316 128.611 182.474 128.825C182.632 129.036 182.751 129.291 182.83 129.59C182.909 129.886 182.949 130.215 182.949 130.579ZM181.89 130.671V130.579C181.89 130.359 181.869 130.155 181.828 129.968C181.787 129.777 181.723 129.61 181.635 129.467C181.547 129.323 181.434 129.212 181.296 129.133C181.162 129.051 180.999 129.01 180.809 129.01C180.621 129.01 180.46 129.042 180.325 129.106C180.19 129.168 180.078 129.254 179.987 129.366C179.896 129.477 179.826 129.607 179.776 129.757C179.726 129.903 179.691 130.063 179.67 130.236V131.088C179.706 131.299 179.766 131.493 179.851 131.668C179.936 131.844 180.056 131.985 180.211 132.09C180.369 132.193 180.571 132.244 180.817 132.244C181.008 132.244 181.17 132.203 181.305 132.121C181.44 132.039 181.55 131.926 181.635 131.783C181.723 131.636 181.787 131.468 181.828 131.277C181.869 131.087 181.89 130.885 181.89 130.671ZM184.913 129.159V134.828H183.854V128.245H184.83L184.913 129.159ZM188.011 130.579V130.671C188.011 131.017 187.97 131.337 187.888 131.633C187.809 131.926 187.69 132.183 187.532 132.402C187.377 132.619 187.185 132.788 186.957 132.908C186.728 133.028 186.464 133.088 186.166 133.088C185.87 133.088 185.61 133.034 185.388 132.925C185.168 132.814 184.982 132.657 184.83 132.455C184.677 132.253 184.554 132.016 184.46 131.743C184.37 131.468 184.305 131.166 184.267 130.838V130.482C184.305 130.133 184.37 129.817 184.46 129.533C184.554 129.249 184.677 129.004 184.83 128.799C184.982 128.594 185.168 128.436 185.388 128.324C185.607 128.213 185.864 128.157 186.157 128.157C186.456 128.157 186.721 128.216 186.952 128.333C187.184 128.447 187.378 128.611 187.537 128.825C187.695 129.036 187.813 129.291 187.893 129.59C187.972 129.886 188.011 130.215 188.011 130.579ZM186.952 130.671V130.579C186.952 130.359 186.932 130.155 186.891 129.968C186.85 129.777 186.785 129.61 186.697 129.467C186.609 129.323 186.497 129.212 186.359 129.133C186.224 129.051 186.062 129.01 185.871 129.01C185.684 129.01 185.522 129.042 185.388 129.106C185.253 129.168 185.14 129.254 185.049 129.366C184.958 129.477 184.888 129.607 184.838 129.757C184.789 129.903 184.753 130.063 184.733 130.236V131.088C184.768 131.299 184.828 131.493 184.913 131.668C184.998 131.844 185.118 131.985 185.273 132.09C185.432 132.193 185.634 132.244 185.88 132.244C186.07 132.244 186.233 132.203 186.368 132.121C186.502 132.039 186.612 131.926 186.697 131.783C186.785 131.636 186.85 131.468 186.891 131.277C186.932 131.087 186.952 130.885 186.952 130.671ZM188.71 130.675V130.574C188.71 130.231 188.76 129.914 188.859 129.621C188.959 129.325 189.103 129.068 189.29 128.852C189.48 128.632 189.712 128.462 189.984 128.342C190.26 128.219 190.57 128.157 190.916 128.157C191.265 128.157 191.575 128.219 191.848 128.342C192.123 128.462 192.356 128.632 192.546 128.852C192.737 129.068 192.882 129.325 192.981 129.621C193.081 129.914 193.131 130.231 193.131 130.574V130.675C193.131 131.018 193.081 131.336 192.981 131.629C192.882 131.922 192.737 132.178 192.546 132.398C192.356 132.615 192.125 132.785 191.852 132.908C191.58 133.028 191.271 133.088 190.925 133.088C190.576 133.088 190.264 133.028 189.989 132.908C189.716 132.785 189.485 132.615 189.294 132.398C189.104 132.178 188.959 131.922 188.859 131.629C188.76 131.336 188.71 131.018 188.71 130.675ZM189.769 130.574V130.675C189.769 130.889 189.791 131.091 189.835 131.282C189.879 131.472 189.948 131.639 190.042 131.783C190.135 131.926 190.255 132.039 190.402 132.121C190.548 132.203 190.723 132.244 190.925 132.244C191.121 132.244 191.291 132.203 191.435 132.121C191.581 132.039 191.701 131.926 191.795 131.783C191.889 131.639 191.958 131.472 192.001 131.282C192.048 131.091 192.072 130.889 192.072 130.675V130.574C192.072 130.363 192.048 130.164 192.001 129.977C191.958 129.786 191.887 129.618 191.791 129.471C191.697 129.325 191.577 129.21 191.43 129.128C191.287 129.043 191.115 129.001 190.916 129.001C190.717 129.001 190.544 129.043 190.397 129.128C190.254 129.21 190.135 129.325 190.042 129.471C189.948 129.618 189.879 129.786 189.835 129.977C189.791 130.164 189.769 130.363 189.769 130.574ZM195.082 129.15V133H194.023V128.245H195.034L195.082 129.15ZM196.537 128.214L196.528 129.199C196.463 129.187 196.393 129.178 196.317 129.172C196.244 129.167 196.17 129.164 196.097 129.164C195.916 129.164 195.756 129.19 195.618 129.243C195.48 129.292 195.365 129.366 195.271 129.462C195.18 129.556 195.11 129.67 195.06 129.805C195.01 129.94 194.981 130.091 194.972 130.258L194.73 130.275C194.73 129.977 194.76 129.7 194.818 129.445C194.877 129.19 194.965 128.966 195.082 128.772C195.202 128.579 195.352 128.428 195.53 128.32C195.712 128.211 195.921 128.157 196.159 128.157C196.223 128.157 196.292 128.163 196.365 128.175C196.441 128.187 196.499 128.2 196.537 128.214ZM199.6 128.245V129.019H196.919V128.245H199.6ZM197.692 127.081H198.751V131.686C198.751 131.833 198.772 131.945 198.813 132.024C198.857 132.101 198.917 132.152 198.993 132.178C199.069 132.205 199.159 132.218 199.261 132.218C199.334 132.218 199.405 132.213 199.472 132.205C199.54 132.196 199.594 132.187 199.635 132.178L199.639 132.987C199.551 133.013 199.449 133.037 199.332 133.057C199.217 133.078 199.085 133.088 198.936 133.088C198.693 133.088 198.478 133.045 198.29 132.96C198.103 132.873 197.956 132.73 197.851 132.534C197.745 132.338 197.692 132.077 197.692 131.752V127.081ZM204.038 132.481L205.33 128.245H206.464L204.557 133.725C204.513 133.842 204.456 133.97 204.385 134.107C204.315 134.245 204.223 134.375 204.108 134.499C203.997 134.625 203.858 134.726 203.691 134.802C203.524 134.881 203.322 134.92 203.084 134.92C202.991 134.92 202.9 134.912 202.812 134.894C202.727 134.879 202.646 134.863 202.57 134.846L202.566 134.037C202.595 134.04 202.63 134.043 202.671 134.046C202.715 134.049 202.75 134.05 202.777 134.05C202.953 134.05 203.099 134.028 203.216 133.984C203.333 133.943 203.429 133.876 203.502 133.782C203.578 133.688 203.643 133.562 203.695 133.404L204.038 132.481ZM203.309 128.245L204.438 131.805L204.627 132.921L203.893 133.11L202.166 128.245H203.309ZM206.798 130.675V130.574C206.798 130.231 206.848 129.914 206.947 129.621C207.047 129.325 207.19 129.068 207.378 128.852C207.568 128.632 207.8 128.462 208.072 128.342C208.348 128.219 208.658 128.157 209.004 128.157C209.353 128.157 209.663 128.219 209.936 128.342C210.211 128.462 210.444 128.632 210.634 128.852C210.825 129.068 210.97 129.325 211.069 129.621C211.169 129.914 211.219 130.231 211.219 130.574V130.675C211.219 131.018 211.169 131.336 211.069 131.629C210.97 131.922 210.825 132.178 210.634 132.398C210.444 132.615 210.212 132.785 209.94 132.908C209.667 133.028 209.358 133.088 209.013 133.088C208.664 133.088 208.352 133.028 208.077 132.908C207.804 132.785 207.573 132.615 207.382 132.398C207.192 132.178 207.047 131.922 206.947 131.629C206.848 131.336 206.798 131.018 206.798 130.675ZM207.857 130.574V130.675C207.857 130.889 207.879 131.091 207.923 131.282C207.967 131.472 208.036 131.639 208.129 131.783C208.223 131.926 208.343 132.039 208.49 132.121C208.636 132.203 208.811 132.244 209.013 132.244C209.209 132.244 209.379 132.203 209.522 132.121C209.669 132.039 209.789 131.926 209.883 131.783C209.977 131.639 210.045 131.472 210.089 131.282C210.136 131.091 210.16 130.889 210.16 130.675V130.574C210.16 130.363 210.136 130.164 210.089 129.977C210.045 129.786 209.975 129.618 209.878 129.471C209.785 129.325 209.665 129.21 209.518 129.128C209.375 129.043 209.203 129.001 209.004 129.001C208.805 129.001 208.632 129.043 208.485 129.128C208.342 129.21 208.223 129.325 208.129 129.471C208.036 129.618 207.967 129.786 207.923 129.977C207.879 130.164 207.857 130.363 207.857 130.574ZM214.967 131.879V128.245H216.031V133H215.029L214.967 131.879ZM215.117 130.891L215.473 130.882C215.473 131.201 215.438 131.496 215.367 131.765C215.297 132.032 215.188 132.265 215.042 132.464C214.896 132.66 214.708 132.814 214.479 132.925C214.251 133.034 213.977 133.088 213.658 133.088C213.426 133.088 213.214 133.054 213.021 132.987C212.827 132.919 212.66 132.815 212.52 132.675C212.382 132.534 212.275 132.351 212.199 132.125C212.123 131.9 212.084 131.63 212.084 131.317V128.245H213.144V131.326C213.144 131.499 213.164 131.644 213.205 131.761C213.246 131.875 213.302 131.967 213.372 132.038C213.442 132.108 213.524 132.158 213.618 132.187C213.712 132.216 213.812 132.231 213.917 132.231C214.219 132.231 214.456 132.172 214.629 132.055C214.805 131.935 214.929 131.774 215.002 131.572C215.079 131.37 215.117 131.143 215.117 130.891ZM218.18 129.15V133H217.121V128.245H218.131L218.18 129.15ZM219.634 128.214L219.625 129.199C219.561 129.187 219.491 129.178 219.415 129.172C219.341 129.167 219.268 129.164 219.195 129.164C219.013 129.164 218.854 129.19 218.716 129.243C218.578 129.292 218.462 129.366 218.369 129.462C218.278 129.556 218.208 129.67 218.158 129.805C218.108 129.94 218.079 130.091 218.07 130.258L217.828 130.275C217.828 129.977 217.857 129.7 217.916 129.445C217.975 129.19 218.062 128.966 218.18 128.772C218.3 128.579 218.449 128.428 218.628 128.32C218.81 128.211 219.019 128.157 219.256 128.157C219.321 128.157 219.39 128.163 219.463 128.175C219.539 128.187 219.596 128.2 219.634 128.214ZM223.972 133H222.913V127.788C222.913 127.434 222.979 127.136 223.11 126.896C223.245 126.653 223.437 126.47 223.686 126.347C223.935 126.221 224.229 126.158 224.569 126.158C224.675 126.158 224.779 126.165 224.881 126.18C224.984 126.191 225.083 126.21 225.18 126.237L225.154 127.054C225.095 127.04 225.031 127.029 224.96 127.023C224.893 127.018 224.82 127.015 224.741 127.015C224.58 127.015 224.44 127.045 224.323 127.107C224.209 127.166 224.121 127.252 224.06 127.366C224.001 127.48 223.972 127.621 223.972 127.788V133ZM224.952 128.245V129.019H222.183V128.245H224.952ZM228.582 131.879V128.245H229.645V133H228.643L228.582 131.879ZM228.731 130.891L229.087 130.882C229.087 131.201 229.052 131.496 228.981 131.765C228.911 132.032 228.803 132.265 228.656 132.464C228.51 132.66 228.322 132.814 228.094 132.925C227.865 133.034 227.591 133.088 227.272 133.088C227.041 133.088 226.828 133.054 226.635 132.987C226.441 132.919 226.274 132.815 226.134 132.675C225.996 132.534 225.889 132.351 225.813 132.125C225.737 131.9 225.699 131.63 225.699 131.317V128.245H226.758V131.326C226.758 131.499 226.778 131.644 226.819 131.761C226.86 131.875 226.916 131.967 226.986 132.038C227.057 132.108 227.139 132.158 227.232 132.187C227.326 132.216 227.426 132.231 227.531 132.231C227.833 132.231 228.07 132.172 228.243 132.055C228.419 131.935 228.543 131.774 228.617 131.572C228.693 131.37 228.731 131.143 228.731 130.891ZM231.794 129.15V133H230.735V128.245H231.746L231.794 129.15ZM233.249 128.214L233.24 129.199C233.175 129.187 233.105 129.178 233.029 129.172C232.956 129.167 232.882 129.164 232.809 129.164C232.627 129.164 232.468 129.19 232.33 129.243C232.192 129.292 232.077 129.366 231.983 129.462C231.892 129.556 231.822 129.67 231.772 129.805C231.722 129.94 231.693 130.091 231.684 130.258L231.442 130.275C231.442 129.977 231.472 129.7 231.53 129.445C231.589 129.19 231.677 128.966 231.794 128.772C231.914 128.579 232.063 128.428 232.242 128.32C232.424 128.211 232.633 128.157 232.871 128.157C232.935 128.157 233.004 128.163 233.077 128.175C233.153 128.187 233.21 128.2 233.249 128.214ZM236.312 128.245V129.019H233.631V128.245H236.312ZM234.404 127.081H235.463V131.686C235.463 131.833 235.484 131.945 235.525 132.024C235.569 132.101 235.629 132.152 235.705 132.178C235.781 132.205 235.871 132.218 235.973 132.218C236.046 132.218 236.117 132.213 236.184 132.205C236.251 132.196 236.306 132.187 236.347 132.178L236.351 132.987C236.263 133.013 236.161 133.037 236.043 133.057C235.929 133.078 235.797 133.088 235.648 133.088C235.405 133.088 235.189 133.045 235.002 132.96C234.814 132.873 234.668 132.73 234.562 132.534C234.457 132.338 234.404 132.077 234.404 131.752V127.081ZM238.175 126.25V133H237.12V126.25H238.175ZM237.99 130.447L237.647 130.442C237.65 130.114 237.696 129.811 237.784 129.533C237.875 129.254 238 129.013 238.162 128.808C238.326 128.6 238.522 128.44 238.75 128.329C238.979 128.214 239.232 128.157 239.511 128.157C239.745 128.157 239.956 128.189 240.144 128.254C240.334 128.318 240.498 128.422 240.636 128.566C240.773 128.707 240.877 128.891 240.948 129.12C241.021 129.345 241.058 129.621 241.058 129.946V133H239.994V129.937C239.994 129.708 239.96 129.527 239.893 129.392C239.829 129.257 239.733 129.161 239.607 129.102C239.481 129.041 239.328 129.01 239.146 129.01C238.956 129.01 238.787 129.048 238.641 129.124C238.497 129.2 238.377 129.304 238.28 129.436C238.184 129.568 238.11 129.72 238.061 129.893C238.014 130.066 237.99 130.25 237.99 130.447ZM244.226 133.088C243.875 133.088 243.557 133.031 243.272 132.917C242.991 132.799 242.751 132.637 242.552 132.429C242.355 132.221 242.205 131.976 242.099 131.695C241.994 131.414 241.941 131.11 241.941 130.785V130.609C241.941 130.237 241.995 129.9 242.104 129.599C242.212 129.297 242.363 129.039 242.556 128.825C242.75 128.608 242.978 128.443 243.242 128.329C243.505 128.214 243.791 128.157 244.099 128.157C244.438 128.157 244.736 128.214 244.991 128.329C245.246 128.443 245.457 128.604 245.624 128.812C245.793 129.017 245.919 129.262 246.001 129.546C246.086 129.83 246.129 130.144 246.129 130.486V130.939H242.455V130.179H245.083V130.095C245.077 129.905 245.039 129.726 244.969 129.559C244.901 129.392 244.797 129.257 244.657 129.155C244.516 129.052 244.329 129.001 244.094 129.001C243.918 129.001 243.762 129.039 243.624 129.115C243.489 129.188 243.376 129.295 243.286 129.436C243.195 129.577 243.125 129.747 243.075 129.946C243.028 130.142 243.004 130.363 243.004 130.609V130.785C243.004 130.993 243.032 131.187 243.088 131.365C243.146 131.541 243.231 131.695 243.343 131.827C243.454 131.958 243.589 132.062 243.747 132.139C243.905 132.212 244.085 132.249 244.288 132.249C244.542 132.249 244.77 132.197 244.969 132.095C245.168 131.992 245.341 131.847 245.487 131.66L246.045 132.2C245.943 132.35 245.81 132.493 245.646 132.631C245.481 132.766 245.281 132.875 245.043 132.96C244.809 133.045 244.537 133.088 244.226 133.088ZM248.019 129.15V133H246.959V128.245H247.97L248.019 129.15ZM249.473 128.214L249.464 129.199C249.4 129.187 249.33 129.178 249.253 129.172C249.18 129.167 249.107 129.164 249.034 129.164C248.852 129.164 248.692 129.19 248.555 129.243C248.417 129.292 248.301 129.366 248.208 129.462C248.117 129.556 248.046 129.67 247.997 129.805C247.947 129.94 247.917 130.091 247.909 130.258L247.667 130.275C247.667 129.977 247.696 129.7 247.755 129.445C247.813 129.19 247.901 128.966 248.019 128.772C248.139 128.579 248.288 128.428 248.467 128.32C248.648 128.211 248.858 128.157 249.095 128.157C249.16 128.157 249.229 128.163 249.302 128.175C249.378 128.187 249.435 128.2 249.473 128.214ZM167.208 144.088C166.856 144.088 166.538 144.031 166.254 143.917C165.973 143.799 165.732 143.637 165.533 143.429C165.337 143.221 165.186 142.976 165.081 142.695C164.975 142.414 164.922 142.11 164.922 141.785V141.609C164.922 141.237 164.977 140.9 165.085 140.599C165.193 140.297 165.344 140.039 165.538 139.825C165.731 139.608 165.959 139.443 166.223 139.329C166.487 139.214 166.772 139.157 167.08 139.157C167.42 139.157 167.717 139.214 167.972 139.329C168.227 139.443 168.438 139.604 168.605 139.812C168.775 140.017 168.901 140.262 168.983 140.546C169.068 140.83 169.11 141.144 169.11 141.486V141.939H165.437V141.179H168.064V141.095C168.059 140.905 168.021 140.726 167.95 140.559C167.883 140.392 167.779 140.257 167.638 140.155C167.498 140.052 167.31 140.001 167.076 140.001C166.9 140.001 166.743 140.039 166.605 140.115C166.471 140.188 166.358 140.295 166.267 140.436C166.176 140.577 166.106 140.747 166.056 140.946C166.009 141.142 165.986 141.363 165.986 141.609V141.785C165.986 141.993 166.014 142.187 166.069 142.365C166.128 142.541 166.213 142.695 166.324 142.827C166.436 142.958 166.57 143.062 166.729 143.139C166.887 143.212 167.067 143.249 167.269 143.249C167.524 143.249 167.751 143.197 167.95 143.095C168.149 142.992 168.322 142.847 168.469 142.66L169.027 143.2C168.924 143.35 168.791 143.493 168.627 143.631C168.463 143.766 168.262 143.875 168.025 143.96C167.791 144.045 167.518 144.088 167.208 144.088ZM172.837 143.016V137.25H173.9V144H172.938L172.837 143.016ZM169.743 141.675V141.583C169.743 141.223 169.786 140.895 169.871 140.599C169.956 140.3 170.079 140.043 170.24 139.83C170.401 139.613 170.597 139.447 170.829 139.333C171.06 139.216 171.321 139.157 171.611 139.157C171.898 139.157 172.15 139.213 172.367 139.324C172.583 139.436 172.768 139.595 172.92 139.803C173.073 140.008 173.194 140.254 173.285 140.542C173.376 140.826 173.44 141.142 173.479 141.491V141.785C173.44 142.125 173.376 142.436 173.285 142.717C173.194 142.998 173.073 143.241 172.92 143.446C172.768 143.651 172.582 143.81 172.362 143.921C172.146 144.032 171.892 144.088 171.602 144.088C171.315 144.088 171.056 144.028 170.824 143.908C170.596 143.788 170.401 143.619 170.24 143.402C170.079 143.186 169.956 142.931 169.871 142.638C169.786 142.342 169.743 142.021 169.743 141.675ZM170.802 141.583V141.675C170.802 141.892 170.821 142.094 170.859 142.282C170.9 142.469 170.963 142.635 171.048 142.778C171.133 142.919 171.243 143.03 171.378 143.112C171.516 143.191 171.68 143.231 171.87 143.231C172.11 143.231 172.308 143.178 172.463 143.073C172.619 142.967 172.74 142.825 172.828 142.646C172.919 142.465 172.98 142.263 173.013 142.04V141.245C172.995 141.072 172.958 140.911 172.903 140.761C172.85 140.612 172.778 140.481 172.688 140.37C172.597 140.256 172.484 140.168 172.349 140.106C172.217 140.042 172.061 140.01 171.879 140.01C171.686 140.01 171.521 140.051 171.387 140.133C171.252 140.215 171.141 140.328 171.053 140.471C170.968 140.615 170.905 140.782 170.864 140.972C170.823 141.163 170.802 141.366 170.802 141.583ZM177.869 142.879V139.245H178.932V144H177.93L177.869 142.879ZM178.018 141.891L178.374 141.882C178.374 142.201 178.339 142.496 178.269 142.765C178.198 143.032 178.09 143.265 177.943 143.464C177.797 143.66 177.609 143.814 177.381 143.925C177.152 144.034 176.878 144.088 176.559 144.088C176.328 144.088 176.115 144.054 175.922 143.987C175.729 143.919 175.562 143.815 175.421 143.675C175.283 143.534 175.176 143.351 175.1 143.125C175.024 142.9 174.986 142.63 174.986 142.317V139.245H176.045V142.326C176.045 142.499 176.065 142.644 176.106 142.761C176.147 142.875 176.203 142.967 176.273 143.038C176.344 143.108 176.426 143.158 176.52 143.187C176.613 143.216 176.713 143.231 176.818 143.231C177.12 143.231 177.357 143.172 177.53 143.055C177.706 142.935 177.831 142.774 177.904 142.572C177.98 142.37 178.018 142.143 178.018 141.891ZM181.96 143.244C182.133 143.244 182.288 143.21 182.426 143.143C182.566 143.073 182.679 142.976 182.764 142.853C182.852 142.73 182.9 142.588 182.909 142.427H183.907C183.901 142.734 183.81 143.014 183.634 143.266C183.458 143.518 183.226 143.719 182.936 143.868C182.646 144.015 182.325 144.088 181.973 144.088C181.61 144.088 181.293 144.026 181.024 143.903C180.754 143.777 180.53 143.604 180.352 143.385C180.173 143.165 180.038 142.912 179.947 142.625C179.859 142.337 179.815 142.03 179.815 141.702V141.548C179.815 141.22 179.859 140.912 179.947 140.625C180.038 140.335 180.173 140.08 180.352 139.86C180.53 139.641 180.754 139.469 181.024 139.346C181.293 139.22 181.608 139.157 181.969 139.157C182.35 139.157 182.684 139.233 182.971 139.386C183.258 139.535 183.483 139.745 183.647 140.014C183.814 140.281 183.901 140.591 183.907 140.946H182.909C182.9 140.77 182.856 140.612 182.777 140.471C182.701 140.328 182.593 140.213 182.452 140.128C182.314 140.043 182.149 140.001 181.956 140.001C181.742 140.001 181.564 140.045 181.424 140.133C181.283 140.218 181.173 140.335 181.094 140.484C181.015 140.631 180.958 140.796 180.923 140.981C180.891 141.163 180.875 141.352 180.875 141.548V141.702C180.875 141.898 180.891 142.088 180.923 142.273C180.955 142.458 181.011 142.623 181.09 142.77C181.172 142.913 181.283 143.029 181.424 143.117C181.564 143.202 181.743 143.244 181.96 143.244ZM187.4 143.046V140.779C187.4 140.609 187.37 140.462 187.308 140.339C187.247 140.216 187.153 140.121 187.027 140.054C186.904 139.986 186.749 139.953 186.561 139.953C186.388 139.953 186.239 139.982 186.113 140.041C185.987 140.099 185.889 140.178 185.818 140.278C185.748 140.377 185.713 140.49 185.713 140.616H184.658C184.658 140.429 184.704 140.247 184.794 140.071C184.885 139.896 185.017 139.739 185.19 139.601C185.363 139.463 185.569 139.355 185.81 139.276C186.05 139.197 186.319 139.157 186.618 139.157C186.976 139.157 187.292 139.217 187.567 139.337C187.846 139.458 188.064 139.639 188.222 139.882C188.383 140.123 188.464 140.424 188.464 140.788V142.901C188.464 143.118 188.479 143.313 188.508 143.486C188.54 143.656 188.585 143.804 188.644 143.93V144H187.559C187.509 143.886 187.469 143.741 187.44 143.565C187.414 143.386 187.4 143.213 187.4 143.046ZM187.554 141.108L187.563 141.763H186.803C186.606 141.763 186.434 141.782 186.284 141.82C186.135 141.855 186.01 141.908 185.911 141.979C185.811 142.049 185.736 142.134 185.687 142.233C185.637 142.333 185.612 142.446 185.612 142.572C185.612 142.698 185.641 142.813 185.7 142.919C185.758 143.021 185.843 143.102 185.955 143.161C186.069 143.219 186.207 143.249 186.368 143.249C186.584 143.249 186.773 143.205 186.935 143.117C187.099 143.026 187.228 142.916 187.321 142.787C187.415 142.655 187.465 142.531 187.471 142.414L187.813 142.884C187.778 143.004 187.718 143.133 187.633 143.271C187.548 143.408 187.437 143.54 187.299 143.666C187.165 143.789 187.002 143.89 186.812 143.969C186.624 144.048 186.407 144.088 186.161 144.088C185.851 144.088 185.574 144.026 185.331 143.903C185.087 143.777 184.897 143.609 184.759 143.398C184.622 143.184 184.553 142.942 184.553 142.673C184.553 142.421 184.6 142.198 184.693 142.005C184.79 141.809 184.931 141.645 185.115 141.513C185.303 141.381 185.531 141.281 185.801 141.214C186.07 141.144 186.378 141.108 186.724 141.108H187.554ZM191.751 139.245V140.019H189.07V139.245H191.751ZM189.844 138.081H190.903V142.686C190.903 142.833 190.923 142.945 190.964 143.024C191.008 143.101 191.068 143.152 191.145 143.178C191.221 143.205 191.31 143.218 191.413 143.218C191.486 143.218 191.556 143.213 191.624 143.205C191.691 143.196 191.745 143.187 191.786 143.178L191.791 143.987C191.703 144.013 191.6 144.037 191.483 144.057C191.369 144.078 191.237 144.088 191.087 144.088C190.844 144.088 190.629 144.045 190.441 143.96C190.254 143.873 190.107 143.73 190.002 143.534C189.896 143.338 189.844 143.077 189.844 142.752V138.081ZM193.702 139.245V144H192.639V139.245H193.702ZM192.568 137.997C192.568 137.836 192.621 137.703 192.727 137.597C192.835 137.489 192.984 137.435 193.175 137.435C193.362 137.435 193.51 137.489 193.619 137.597C193.727 137.703 193.781 137.836 193.781 137.997C193.781 138.155 193.727 138.287 193.619 138.393C193.51 138.498 193.362 138.551 193.175 138.551C192.984 138.551 192.835 138.498 192.727 138.393C192.621 138.287 192.568 138.155 192.568 137.997ZM194.66 141.675V141.574C194.66 141.231 194.71 140.914 194.81 140.621C194.909 140.325 195.053 140.068 195.24 139.852C195.431 139.632 195.662 139.462 195.935 139.342C196.21 139.219 196.521 139.157 196.866 139.157C197.215 139.157 197.525 139.219 197.798 139.342C198.073 139.462 198.306 139.632 198.497 139.852C198.687 140.068 198.832 140.325 198.932 140.621C199.031 140.914 199.081 141.231 199.081 141.574V141.675C199.081 142.018 199.031 142.336 198.932 142.629C198.832 142.922 198.687 143.178 198.497 143.398C198.306 143.615 198.075 143.785 197.802 143.908C197.53 144.028 197.221 144.088 196.875 144.088C196.526 144.088 196.214 144.028 195.939 143.908C195.667 143.785 195.435 143.615 195.245 143.398C195.054 143.178 194.909 142.922 194.81 142.629C194.71 142.336 194.66 142.018 194.66 141.675ZM195.719 141.574V141.675C195.719 141.889 195.741 142.091 195.785 142.282C195.829 142.472 195.898 142.639 195.992 142.783C196.085 142.926 196.206 143.039 196.352 143.121C196.499 143.203 196.673 143.244 196.875 143.244C197.071 143.244 197.241 143.203 197.385 143.121C197.531 143.039 197.651 142.926 197.745 142.783C197.839 142.639 197.908 142.472 197.952 142.282C197.999 142.091 198.022 141.889 198.022 141.675V141.574C198.022 141.363 197.999 141.164 197.952 140.977C197.908 140.786 197.837 140.618 197.741 140.471C197.647 140.325 197.527 140.21 197.38 140.128C197.237 140.043 197.065 140.001 196.866 140.001C196.667 140.001 196.494 140.043 196.348 140.128C196.204 140.21 196.085 140.325 195.992 140.471C195.898 140.618 195.829 140.786 195.785 140.977C195.741 141.164 195.719 141.363 195.719 141.574ZM201.019 140.26V144H199.96V139.245H200.958L201.019 140.26ZM200.83 141.447L200.487 141.442C200.49 141.105 200.537 140.796 200.628 140.515C200.722 140.234 200.851 139.992 201.015 139.79C201.182 139.588 201.381 139.433 201.612 139.324C201.844 139.213 202.102 139.157 202.386 139.157C202.614 139.157 202.821 139.189 203.005 139.254C203.193 139.315 203.353 139.417 203.484 139.557C203.619 139.698 203.722 139.881 203.792 140.106C203.862 140.329 203.897 140.603 203.897 140.928V144H202.834V140.924C202.834 140.695 202.8 140.515 202.733 140.383C202.668 140.249 202.573 140.153 202.447 140.098C202.324 140.039 202.17 140.01 201.986 140.01C201.804 140.01 201.642 140.048 201.498 140.124C201.354 140.2 201.233 140.304 201.133 140.436C201.037 140.568 200.962 140.72 200.909 140.893C200.856 141.066 200.83 141.25 200.83 141.447Z" fill="#535050"/>
<path d="M321 0H360V32H353C335.327 32 321 17.6731 321 0V0Z" fill="#5782BB"/>
<defs>
<clipPath id="clip0_89_15">
<rect width="30" height="30" fill="white" transform="translate(7.25513 115.435) rotate(10.1512)"/>
</clipPath>
<clipPath id="clip1_89_15">
<rect width="15" height="15" fill="white" transform="translate(20.6433 100) rotate(10.15)"/>
</clipPath>
</defs>
</svg>
