<svg width="22" height="22" viewBox="0 0 22 22" fill="none" xmlns="http://www.w3.org/2000/svg">
<path d="M18.8571 16.5556H6.71429L3.14286 1H1M3.85714 3.96296H21L18.8571 13.5926H6L3.85714 3.96296Z" stroke="#535050" stroke-width="0.5" stroke-linecap="round" stroke-linejoin="round"/>
<path d="M17.4286 21C18.2175 21 18.8571 20.3367 18.8571 19.5185C18.8571 18.7003 18.2175 18.037 17.4286 18.037C16.6396 18.037 16 18.7003 16 19.5185C16 20.3367 16.6396 21 17.4286 21Z" stroke="#535050" stroke-width="0.5" stroke-linecap="round" stroke-linejoin="round"/>
<path d="M8.14293 21C8.93191 21 9.5715 20.3367 9.5715 19.5185C9.5715 18.7003 8.93191 18.037 8.14293 18.037C7.35395 18.037 6.71436 18.7003 6.71436 19.5185C6.71436 20.3367 7.35395 21 8.14293 21Z" stroke="#535050" stroke-width="0.5" stroke-linecap="round" stroke-linejoin="round"/>
</svg>
