<svg width="21" height="21" viewBox="0 0 21 21" fill="none" xmlns="http://www.w3.org/2000/svg">
<g filter="url(#filter0_d_113_33)">
<path d="M16 6.5H13.9375M7.75 1C7.93234 1 8.1072 1.08278 8.23614 1.23013C8.36507 1.37748 8.4375 1.57733 8.4375 1.78571V3.35714C8.4375 3.56553 8.36507 3.76538 8.23614 3.91273C8.1072 4.06008 7.93234 4.14286 7.75 4.14286C7.56766 4.14286 7.3928 4.06008 7.26386 3.91273C7.13493 3.76538 7.0625 3.56553 7.0625 3.35714V1.78571C7.0625 1.57733 7.13493 1.37748 7.26386 1.23013C7.3928 1.08278 7.56766 1 7.75 1V1ZM16 2.57143H8.4375H16ZM7.0625 2.57143H5H7.0625ZM7.75 8.85714C7.93234 8.85714 8.1072 8.93992 8.23614 9.08727C8.36507 9.23462 8.4375 9.43447 8.4375 9.64286V11.2143C8.4375 11.4227 8.36507 11.6225 8.23614 11.7699C8.1072 11.9172 7.93234 12 7.75 12C7.56766 12 7.3928 11.9172 7.26386 11.7699C7.13493 11.6225 7.0625 11.4227 7.0625 11.2143V9.64286C7.0625 9.43447 7.13493 9.23462 7.26386 9.08727C7.3928 8.93992 7.56766 8.85714 7.75 8.85714ZM16 10.4286H8.4375H16ZM7.0625 10.4286H5H7.0625ZM13.25 4.92857C13.4323 4.92857 13.6072 5.01135 13.7361 5.1587C13.8651 5.30605 13.9375 5.5059 13.9375 5.71429V7.28571C13.9375 7.4941 13.8651 7.69395 13.7361 7.8413C13.6072 7.98865 13.4323 8.07143 13.25 8.07143C13.0677 8.07143 12.8928 7.98865 12.7639 7.8413C12.6349 7.69395 12.5625 7.4941 12.5625 7.28571V5.71429C12.5625 5.5059 12.6349 5.30605 12.7639 5.1587C12.8928 5.01135 13.0677 4.92857 13.25 4.92857V4.92857ZM12.5625 6.5H5H12.5625Z" stroke="#535050" stroke-width="0.5" stroke-linecap="round" stroke-linejoin="round" shape-rendering="crispEdges"/>
</g>
<defs>
<filter id="filter0_d_113_33" x="0.75" y="0.75" width="19.5" height="19.5" filterUnits="userSpaceOnUse" color-interpolation-filters="sRGB">
<feFlood flood-opacity="0" result="BackgroundImageFix"/>
<feColorMatrix in="SourceAlpha" type="matrix" values="0 0 0 0 0 0 0 0 0 0 0 0 0 0 0 0 0 0 127 0" result="hardAlpha"/>
<feOffset dy="4"/>
<feGaussianBlur stdDeviation="2"/>
<feComposite in2="hardAlpha" operator="out"/>
<feColorMatrix type="matrix" values="0 0 0 0 0 0 0 0 0 0 0 0 0 0 0 0 0 0 0.25 0"/>
<feBlend mode="normal" in2="BackgroundImageFix" result="effect1_dropShadow_113_33"/>
<feBlend mode="normal" in="SourceGraphic" in2="effect1_dropShadow_113_33" result="shape"/>
</filter>
</defs>
</svg>
