<svg width="40" height="36" viewBox="0 0 40 36" fill="none" xmlns="http://www.w3.org/2000/svg">
<circle cx="20" cy="4" r="4" fill="#5782BB"/>
<path d="M21.2001 2.03961H18.8365C18.6172 2.03961 18.291 2.19037 18.291 2.60565V5.24716C18.291 5.66244 18.6172 5.8132 18.8365 5.8132H21.5637V5.43584H18.8387C18.7547 5.43357 18.6547 5.39904 18.6547 5.24716C18.6547 5.2281 18.6563 5.21112 18.659 5.19565C18.6794 5.08716 18.765 5.06037 18.8385 5.05848H21.3819C21.3852 5.05848 21.3876 5.05678 21.3908 5.05659H21.5637V2.41697C21.5637 2.20886 21.4007 2.03961 21.2001 2.03961ZM21.2001 4.68112H18.6547V2.60565C18.6547 2.45357 18.7547 2.41923 18.8365 2.41697H20.1092V3.73772L20.4728 3.54905L20.8365 3.73772V2.41697H21.2001V4.68112Z" fill="white"/>
<circle cx="20" cy="21" r="11" fill="#FFFEEC"/>
<path d="M15.8984 11.2045L25.127 24.7787H25.1758V13.6948C25.1758 13.1414 25.0456 12.7752 24.7852 12.5961C24.541 12.4008 24.2725 12.3032 23.9795 12.3032H23.1006V11.2045H28.6914V12.3032H27.7148C27.4056 12.3032 27.1289 12.4008 26.8848 12.5961C26.6406 12.7752 26.5186 13.1414 26.5186 13.6948V29.5639H25.4443L14.8486 14.2319L14.7754 14.3051V26.9028C14.7754 27.4399 14.8975 27.8061 15.1416 28.0014C15.3857 28.1967 15.6543 28.2944 15.9473 28.2944H16.8506V29.3686H11.4062V28.2944H12.2119C12.5049 28.2944 12.7734 28.1967 13.0176 28.0014C13.2617 27.8061 13.3838 27.4399 13.3838 26.9028V13.0844L12.8223 12.3032H11.6016V11.2045H15.8984Z" fill="#535050"/>
</svg>
